  0
SECTION
  2
HEADER
  9
$ACADVER
  1
AC1015
  9
$ACADMAINTVER
 70
     6
  9
$DWGCODEPAGE
  3
ANSI_1252
  9
$INSBASE
 10
0.0
 20
0.0
 30
0.0
  9
$EXTMIN
 10
0.0
 20
0.0
 30
0.0
  9
$EXTMAX
 10
210.0
 20
290.0
 30
0.0
  9
$LIMMIN
 10
0.0
 20
0.0
  9
$LIMMAX
 10
210.0
 20
290.0
  9
$ORTHOMODE
 70
     0
  9
$REGENMODE
 70
     1
  9
$FILLMODE
 70
     1
  9
$QTEXTMODE
 70
     0
  9
$MIRRTEXT
 70
     1
  9
$LTSCALE
 40
1.0
  9
$ATTMODE
 70
     1
  9
$TEXTSIZE
 40
3.5
  9
$TRACEWID
 40
1.0
  9
$TEXTSTYLE
  7
Standard
  9
$CLAYER
  8
0
  9
$CELTYPE
  6
ByLayer
  9
$CECOLOR
 62
   256
  9
$CELTSCALE
 40
1.0
  9
$DISPSILH
 70
     0
  9
$DIMSCALE
 40
1.0
  9
$DIMASZ
 40
6.0
  9
$DIMEXO
 40
1.0
  9
$DIMDLI
 40
3.75
  9
$DIMRND
 40
0.0
  9
$DIMDLE
 40
0.0
  9
$DIMEXE
 40
1.0
  9
$DIMTP
 40
0.0
  9
$DIMTM
 40
0.0
  9
$DIMTXT
 40
3.5
  9
$DIMCEN
 40
2.5
  9
$DIMTSZ
 40
0.0
  9
$DIMTOL
 70
     0
  9
$DIMLIM
 70
     0
  9
$DIMTIH
 70
     1
  9
$DIMTOH
 70
     1
  9
$DIMSE1
 70
     0
  9
$DIMSE2
 70
     0
  9
$DIMTAD
 70
     1
  9
$DIMZIN
 70
     0
  9
$DIMBLK
  1

  9
$DIMASO
 70
     1
  9
$DIMSHO
 70
     1
  9
$DIMPOST
  1

  9
$DIMAPOST
  1

  9
$DIMALT
 70
     0
  9
$DIMALTD
 70
     3
  9
$DIMALTF
 40
0.0393700787
  9
$DIMLFAC
 40
5.0
  9
$DIMTOFL
 70
     1
  9
$DIMTVP
 40
0.0
  9
$DIMTIX
 70
     0
  9
$DIMSOXD
 70
     0
  9
$DIMSAH
 70
     0
  9
$DIMBLK1
  1

  9
$DIMBLK2
  1

  9
$DIMSTYLE
  2
ISO-25
  9
$DIMCLRD
 70
     0
  9
$DIMCLRE
 70
     0
  9
$DIMCLRT
 70
     0
  9
$DIMTFAC
 40
1.0
  9
$DIMGAP
 40
1.524
  9
$DIMJUST
 70
     0
  9
$DIMSD1
 70
     0
  9
$DIMSD2
 70
     0
  9
$DIMTOLJ
 70
     0
  9
$DIMTZIN
 70
     0
  9
$DIMALTZ
 70
     0
  9
$DIMALTTZ
 70
     0
  9
$DIMUPT
 70
     0
  9
$DIMDEC
 70
     3
  9
$DIMTDEC
 70
     3
  9
$DIMALTU
 70
     2
  9
$DIMALTTD
 70
     3
  9
$DIMTXSTY
  7
Standard
  9
$DIMAUNIT
 70
     0
  9
$DIMADEC
 70
     2
  9
$DIMALTRND
 40
0.0
  9
$DIMAZIN
 70
     0
  9
$DIMDSEP
 70
    44
  9
$DIMATFIT
 70
     3
  9
$DIMFRAC
 70
     0
  9
$DIMLDRBLK
  1

  9
$DIMLUNIT
 70
     2
  9
$DIMLWD
 70
    -2
  9
$DIMLWE
 70
    -2
  9
$DIMTMOVE
 70
     0
  9
$LUNITS
 70
     2
  9
$LUPREC
 70
     2
  9
$SKETCHINC
 40
1.0
  9
$FILLETRAD
 40
10.0
  9
$AUNITS
 70
     0
  9
$AUPREC
 70
     2
  9
$MENU
  1
.
  9
$ELEVATION
 40
0.0
  9
$PELEVATION
 40
0.0
  9
$THICKNESS
 40
0.0
  9
$LIMCHECK
 70
     0
  9
$CHAMFERA
 40
0.0
  9
$CHAMFERB
 40
0.0
  9
$CHAMFERC
 40
0.0
  9
$CHAMFERD
 40
0.0
  9
$SKPOLY
 70
     0
  9
$TDCREATE
 40
2458944.528899838
  9
$TDUCREATE
 40
2458944.445566505
  9
$TDUPDATE
 40
2458944.528900764
  9
$TDUUPDATE
 40
2458944.44556743
  9
$TDINDWG
 40
0.0000000116
  9
$TDUSRTIMER
 40
0.0000000116
  9
$USRTIMER
 70
     1
  9
$ANGBASE
 50
0.0
  9
$ANGDIR
 70
     0
  9
$PDMODE
 70
     0
  9
$PDSIZE
 40
-1.0
  9
$PLINEWID
 40
0.0
  9
$SPLFRAME
 70
     0
  9
$SPLINETYPE
 70
     6
  9
$SPLINESEGS
 70
     8
  9
$HANDSEED
  5
9C
  9
$SURFTAB1
 70
     6
  9
$SURFTAB2
 70
     6
  9
$SURFTYPE
 70
     6
  9
$SURFU
 70
     6
  9
$SURFV
 70
     6
  9
$UCSBASE
  2

  9
$UCSNAME
  2

  9
$UCSORG
 10
0.0
 20
0.0
 30
0.0
  9
$UCSXDIR
 10
1.0
 20
0.0
 30
0.0
  9
$UCSYDIR
 10
0.0
 20
1.0
 30
0.0
  9
$UCSORTHOREF
  2

  9
$UCSORTHOVIEW
 70
     0
  9
$UCSORGTOP
 10
0.0
 20
0.0
 30
0.0
  9
$UCSORGBOTTOM
 10
0.0
 20
0.0
 30
0.0
  9
$UCSORGLEFT
 10
0.0
 20
0.0
 30
0.0
  9
$UCSORGRIGHT
 10
0.0
 20
0.0
 30
0.0
  9
$UCSORGFRONT
 10
0.0
 20
0.0
 30
0.0
  9
$UCSORGBACK
 10
0.0
 20
0.0
 30
0.0
  9
$PUCSBASE
  2

  9
$PUCSNAME
  2

  9
$PUCSORG
 10
0.0
 20
0.0
 30
0.0
  9
$PUCSXDIR
 10
1.0
 20
0.0
 30
0.0
  9
$PUCSYDIR
 10
0.0
 20
1.0
 30
0.0
  9
$PUCSORTHOREF
  2

  9
$PUCSORTHOVIEW
 70
     0
  9
$PUCSORGTOP
 10
0.0
 20
0.0
 30
0.0
  9
$PUCSORGBOTTOM
 10
0.0
 20
0.0
 30
0.0
  9
$PUCSORGLEFT
 10
0.0
 20
0.0
 30
0.0
  9
$PUCSORGRIGHT
 10
0.0
 20
0.0
 30
0.0
  9
$PUCSORGFRONT
 10
0.0
 20
0.0
 30
0.0
  9
$PUCSORGBACK
 10
0.0
 20
0.0
 30
0.0
  9
$USERI1
 70
     0
  9
$USERI2
 70
     0
  9
$USERI3
 70
     0
  9
$USERI4
 70
     0
  9
$USERI5
 70
     0
  9
$USERR1
 40
0.0
  9
$USERR2
 40
0.0
  9
$USERR3
 40
0.0
  9
$USERR4
 40
0.0
  9
$USERR5
 40
0.0
  9
$WORLDVIEW
 70
     1
  9
$SHADEDGE
 70
     3
  9
$SHADEDIF
 70
    70
  9
$TILEMODE
 70
     1
  9
$MAXACTVP
 70
    64
  9
$PINSBASE
 10
0.0
 20
0.0
 30
0.0
  9
$PLIMCHECK
 70
     0
  9
$PEXTMIN
 10
1.0000000000E+20
 20
1.0000000000E+20
 30
1.0000000000E+20
  9
$PEXTMAX
 10
-1.0000000000E+20
 20
-1.0000000000E+20
 30
-1.0000000000E+20
  9
$PLIMMIN
 10
0.0
 20
0.0
  9
$PLIMMAX
 10
420.0
 20
297.0
  9
$UNITMODE
 70
     0
  9
$VISRETAIN
 70
     1
  9
$PLINEGEN
 70
     0
  9
$PSLTSCALE
 70
     1
  9
$TREEDEPTH
 70
  3020
  9
$CMLSTYLE
  2
Standard
  9
$CMLJUST
 70
     0
  9
$CMLSCALE
 40
20.0
  9
$PROXYGRAPHICS
 70
     1
  9
$MEASUREMENT
 70
     1
  9
$CELWEIGHT
370
    -1
  9
$ENDCAPS
280
     0
  9
$JOINSTYLE
280
     0
  9
$LWDISPLAY
290
     1
  9
$INSUNITS
 70
     4
  9
$HYPERLINKBASE
  1

  9
$STYLESHEET
  1

  9
$XEDIT
290
     1
  9
$CEPSNTYPE
380
     0
  9
$PSTYLEMODE
290
     1
  9
$FINGERPRINTGUID
  2
{E61B4565-1427-473C-A7D3-6E6E5E8219A2}
  9
$VERSIONGUID
  2
{FAEB1C32-E019-11D5-929B-00C0DF256EC4}
  9
$EXTNAMES
290
     1
  9
$PSVPSCALE
 40
0.0
  9
$OLESTARTUP
290
     0
  0
ENDSEC
  0
SECTION
  2
CLASSES
  0
CLASS
  1
ACDBDICTIONARYWDFLT
  2
AcDbDictionaryWithDefault
  3
ObjectDBX Classes
 90
        0
280
     0
281
     0
  0
CLASS
  1
VISUALSTYLE
  2
AcDbVisualStyle
  3
ObjectDBX Classes
 90
     4095
280
     0
281
     0
  0
CLASS
  1
MATERIAL
  2
AcDbMaterial
  3
ObjectDBX Classes
 90
     1153
280
     0
281
     0
  0
CLASS
  1
SCALE
  2
AcDbScale
  3
ObjectDBX Classes
 90
     1153
280
     0
281
     0
  0
CLASS
  1
TABLESTYLE
  2
AcDbTableStyle
  3
ObjectDBX Classes
 90
     4095
280
     0
281
     0
  0
CLASS
  1
MLEADERSTYLE
  2
AcDbMLeaderStyle
  3
ACDB_MLEADERSTYLE_CLASS
 90
     4095
280
     0
281
     0
  0
CLASS
  1
SUN
  2
AcDbSun
  3
SCENEOE
 90
     1153
280
     0
281
     0
  0
CLASS
  1
ACDBPLACEHOLDER
  2
AcDbPlaceHolder
  3
ObjectDBX Classes
 90
        0
280
     0
281
     0
  0
CLASS
  1
LAYOUT
  2
AcDbLayout
  3
ObjectDBX Classes
 90
        0
280
     0
281
     0
  0
ENDSEC
  0
SECTION
  2
TABLES
  0
TABLE
  2
VPORT
  5
8
330
0
100
AcDbSymbolTable
 70
     1
  0
VPORT
  5
29
330
8
100
AcDbSymbolTableRecord
100
AcDbViewportTableRecord
  2
*Active
 70
     0
 10
0.0
 20
0.0
 11
1.0
 21
1.0
 12
105.0
 22
145.0
 13
0.0
 23
0.0
 14
10.0
 24
10.0
 15
10.0
 25
10.0
 16
0.0
 26
0.0
 36
1.0
 17
0.0
 27
0.0
 37
0.0
 40
290.0
 41
0.724137931
 42
50.0
 43
0.0
 44
0.0
 50
0.0
 51
0.0
 71
     0
 72
  2000
 73
     1
 74
     3
 75
     0
 76
     0
 77
     0
 78
     0
281
     0
 65
     1
110
0.0
120
0.0
130
0.0
111
1.0
121
0.0
131
0.0
112
0.0
122
1.0
132
0.0
 79
     0
146
0.0
  0
ENDTAB
  0
TABLE
  2
LTYPE
  5
5
330
0
100
AcDbSymbolTable
 70
     6
  0
LTYPE
  5
14
330
5
100
AcDbSymbolTableRecord
100
AcDbLinetypeTableRecord
  2
ByBlock
 70
     0
  3

 72
    65
 73
     0
 40
0.0
  0
LTYPE
  5
15
330
5
100
AcDbSymbolTableRecord
100
AcDbLinetypeTableRecord
  2
ByLayer
 70
     0
  3

 72
    65
 73
     0
 40
0.0
  0
LTYPE
  5
16
330
5
100
AcDbSymbolTableRecord
100
AcDbLinetypeTableRecord
  2
Continuous
 70
     0
  3
Solid line
 72
    65
 73
     0
 40
0.0
  0
LTYPE
  5
6E
330
5
100
AcDbSymbolTableRecord
100
AcDbLinetypeTableRecord
  2
HIDDEN
 70
     0
  3
Hidden __ __ __ __ __ __ __ __ __ __ __ __ __ __
 72
    65
 73
     2
 40
1.905
 49
1.27
 74
     0
 49
-0.635
 74
     0
  0
LTYPE
  5
6F
330
5
100
AcDbSymbolTableRecord
100
AcDbLinetypeTableRecord
  2
PHANTOM
 70
     0
  3
Phantom ______  __  __  ______  __  __  ______
 72
    65
 73
     6
 40
12.7
 49
6.35
 74
     0
 49
-1.27
 74
     0
 49
1.27
 74
     0
 49
-1.27
 74
     0
 49
1.27
 74
     0
 49
-1.27
 74
     0
  0
LTYPE
  5
70
330
5
100
AcDbSymbolTableRecord
100
AcDbLinetypeTableRecord
  2
CENTER
 70
     0
  3
Center ____ _ ____ _ ____ _ ____ _ ____ _ ____
 72
    65
 73
     4
 40
10.16
 49
6.35
 74
     0
 49
-1.27
 74
     0
 49
1.27
 74
     0
 49
-1.27
 74
     0
  0
LTYPE
  5
71
330
5
100
AcDbSymbolTableRecord
100
AcDbLinetypeTableRecord
  2
CENTERX2
 70
     0
  3
Center (2x) ________  __  ________  __  _____
 72
    65
 73
     4
 40
20.32
 49
12.7
 74
     0
 49
-2.54
 74
     0
 49
2.54
 74
     0
 49
-2.54
 74
     0
  0
LTYPE
  5
72
330
5
100
AcDbSymbolTableRecord
100
AcDbLinetypeTableRecord
  2
DOT2
 70
     0
  3
Dot (.5x) ........................................
 72
    65
 73
     2
 40
0.635
 49
0.0
 74
     0
 49
-0.635
 74
     0
  0
ENDTAB
  0
TABLE
  2
LAYER
  5
2
330
0
100
AcDbSymbolTable
 70
     1
  0
LAYER
  5
10
330
2
100
AcDbSymbolTableRecord
100
AcDbLayerTableRecord
  2
0
 70
     0
 62
     7
  6
Continuous
370
    -3
390
F
  0
ENDTAB
  0
TABLE
  2
STYLE
  5
3
330
0
100
AcDbSymbolTable
 70
     3
  0
STYLE
  5
11
330
3
100
AcDbSymbolTableRecord
100
AcDbTextStyleTableRecord
  2
Standard
 70
     0
 40
0.0
 41
1.0
 50
0.0
 71
     0
 42
3.5
  3
txt
  4

  0
STYLE
  5
95
330
3
100
AcDbSymbolTableRecord
100
AcDbTextStyleTableRecord
  2
SLDTEXTSTYLE0
 70
     0
 40
0.0
 41
0.6842105263
 50
0.0
 71
     0
 42
3.5
  3
TXT
  4

  0
STYLE
  5
98
330
3
100
AcDbSymbolTableRecord
100
AcDbTextStyleTableRecord
  2
SLDTEXTSTYLE1
 70
     0
 40
0.0
 41
0.75
 50
0.0
 71
     0
 42
3.5
  3
TXT
  4

  0
ENDTAB
  0
TABLE
  2
VIEW
  5
6
330
0
100
AcDbSymbolTable
 70
     0
  0
ENDTAB
  0
TABLE
  2
UCS
  5
7
330
0
100
AcDbSymbolTable
 70
     0
  0
ENDTAB
  0
TABLE
  2
APPID
  5
9
330
0
100
AcDbSymbolTable
 70
     1
  0
APPID
  5
12
330
9
100
AcDbSymbolTableRecord
100
AcDbRegAppTableRecord
  2
ACAD
 70
     0
  0
ENDTAB
  0
TABLE
  2
DIMSTYLE
  5
A
330
0
100
AcDbSymbolTable
 70
     1
100
AcDbDimStyleTable
  0
DIMSTYLE
105
27
330
A
100
AcDbSymbolTableRecord
100
AcDbDimStyleTableRecord
  2
ISO-25
 70
     0
 41
2.5
 42
0.625
 43
3.75
 44
1.25
 73
     0
 74
     0
 77
     1
 78
     8
140
2.5
141
2.5
143
0.0393700787
147
0.625
171
     3
172
     1
178
     0
271
     2
272
     2
274
     3
278
    44
283
     0
284
     8
340
11
  0
ENDTAB
  0
TABLE
  2
BLOCK_RECORD
  5
1
330
0
100
AcDbSymbolTable
 70
     1
  0
BLOCK_RECORD
  5
1F
330
1
100
AcDbSymbolTableRecord
100
AcDbBlockTableRecord
  2
*Model_Space
340
22
  0
BLOCK_RECORD
  5
1B
330
1
100
AcDbSymbolTableRecord
100
AcDbBlockTableRecord
  2
*Paper_Space
340
1E
  0
BLOCK_RECORD
  5
23
330
1
100
AcDbSymbolTableRecord
100
AcDbBlockTableRecord
  2
*Paper_Space0
340
26
  0
ENDTAB
  0
ENDSEC
  0
SECTION
  2
BLOCKS
  0
BLOCK
  5
20
330
1F
100
AcDbEntity
  8
0
100
AcDbBlockBegin
  2
*Model_Space
 70
     0
 10
0.0
 20
0.0
 30
0.0
  3
*Model_Space
  1

  0
ENDBLK
  5
21
330
1F
100
AcDbEntity
  8
0
100
AcDbBlockEnd
  0
BLOCK
  5
1C
330
1B
100
AcDbEntity
 67
     1
  8
0
100
AcDbBlockBegin
  2
*Paper_Space
 70
     0
 10
0.0
 20
0.0
 30
0.0
  3
*Paper_Space
  1

  0
ENDBLK
  5
1D
330
1B
100
AcDbEntity
 67
     1
  8
0
100
AcDbBlockEnd
  0
BLOCK
  5
24
330
23
100
AcDbEntity
  8
0
100
AcDbBlockBegin
  2
*Paper_Space0
 70
     0
 10
0.0
 20
0.0
 30
0.0
  3
*Paper_Space0
  1

  0
ENDBLK
  5
25
330
23
100
AcDbEntity
  8
0
100
AcDbBlockEnd
  0
ENDSEC
  0
SECTION
  2
ENTITIES
  0
LINE
  5
73
330
1F
100
AcDbEntity
  8
0
  6
CENTERX2
 62
     7
100
AcDbLine
 10
152.0892058418
 20
208.6766620156
 30
0.0
 11
127.2799722431
 21
191.6472082651
 31
0.0
  0
LINE
  5
74
330
1F
100
AcDbEntity
  8
0
  6
CENTERX2
 62
     7
100
AcDbLine
 10
75.3687851533
 20
191.6472082651
 30
0.0
 11
50.5595515547
 21
208.6766620156
 31
0.0
  0
ELLIPSE
  5
75
330
1F
100
AcDbEntity
  8
0
  6
Continuous
 62
     7
370
    25
100
AcDbEllipse
 10
151.0103887423
 20
159.2104318712
 30
0.0
 11
4.374053597662765
 21
-3.426914442523638
 31
2.220446049250313E-16
210
-3.145589621441422E-17
220
2.464456884965947E-17
230
1.0
 40
0.9448180295
 41
0.0
 42
6.283185307179586
  0
ELLIPSE
  5
76
330
1F
100
AcDbEntity
  8
0
  6
Continuous
 62
     7
370
    25
100
AcDbEllipse
 10
156.8329583468
 20
95.7973630225
 30
0.0
 11
4.374053597662765
 21
-3.426914442523638
 31
2.220446049250313E-16
210
-3.145589621441422E-17
220
2.464456884965947E-17
230
1.0
 40
0.9448180295
 41
0.0
 42
6.283185307179586
  0
ELLIPSE
  5
77
330
1F
100
AcDbEntity
  8
0
  6
Continuous
 62
     7
370
    25
100
AcDbEllipse
 10
51.6383686542
 20
159.2104318712
 30
0.0
 11
-4.374053597662744
 21
-3.426914442523639
 31
2.220446049250314E-16
210
4.449786201149256E-17
220
7.998032038750814E-18
230
1.0
 40
0.9448180295
 41
0.0
 42
6.283185307179586
  0
ELLIPSE
  5
78
330
1F
100
AcDbEntity
  8
0
  6
Continuous
 62
     7
370
    25
100
AcDbEllipse
 10
45.8157990496
 20
95.7973630225
 30
0.0
 11
-4.374053597662758
 21
-3.426914442523639
 31
2.220446049250313E-16
210
4.449786201149241E-17
220
7.998032038750812E-18
230
1.0
 40
0.9448180295
 41
0.0
 42
6.283185307179586
  0
ELLIPSE
  5
79
330
1F
100
AcDbEntity
  8
0
  6
Continuous
 62
     7
370
    25
100
AcDbEllipse
 10
74.3243786982
 20
207.9509492707
 30
0.0
 11
0.0
 21
5.330989712400168
 31
0.0
210
0.0
220
0.0
230
1.0
 40
0.984807753
 41
0.0
 42
6.283185307179586
  0
LINE
  5
7A
330
1F
100
AcDbEntity
  8
0
  6
Continuous
 62
     7
370
    25
100
AcDbLine
 10
144.365499638
 20
224.0578684373
 30
0.0
 11
152.0341699184
 21
208.9011717398
 31
0.0
  0
LINE
  5
7B
330
1F
100
AcDbEntity
  8
0
  6
Continuous
 62
     7
370
    25
100
AcDbLine
 10
152.1442417651
 20
208.4521522914
 30
0.0
 11
152.0341699184
 21
208.9011717398
 31
0.0
  0
LINE
  5
7C
330
1F
100
AcDbEntity
  8
0
  6
Continuous
 62
     7
370
    25
100
AcDbLine
 10
152.1442417651
 20
208.4521522914
 30
0.0
 11
180.2219833504
 21
131.4315583292
 31
0.0
  0
LINE
  5
7D
330
1F
100
AcDbEntity
  8
0
  6
Continuous
 62
     7
370
    25
100
AcDbLine
 10
160.6979973096
 20
51.4577403788
 30
0.0
 11
180.2219833504
 21
131.4315583292
 31
0.0
  0
LINE
  5
7E
330
1F
100
AcDbEntity
  8
0
  6
Continuous
 62
     7
370
    25
100
AcDbLine
 10
160.6979973096
 20
51.4577403788
 30
0.0
 11
108.1219225417
 21
45.2886404385
 31
0.0
  0
LINE
  5
7F
330
1F
100
AcDbEntity
  8
0
  6
Continuous
 62
     7
370
    25
100
AcDbLine
 10
107.2847877537
 20
61.6981815828
 30
0.0
 11
108.1219225417
 21
45.2886404385
 31
0.0
  0
LINE
  5
80
330
1F
100
AcDbEntity
  8
0
  6
Continuous
 62
     7
370
    25
100
AcDbLine
 10
148.424277436
 20
61.5055936287
 30
0.0
 11
107.2847877537
 21
61.6981815828
 31
0.0
  0
LINE
  5
81
330
1F
100
AcDbEntity
  8
0
  6
Continuous
 62
     7
370
    25
100
AcDbLine
 10
150.4198995395
 20
103.8780384625
 30
0.0
 11
148.424277436
 21
61.5055936287
 31
0.0
  0
SPLINE
  5
82
330
1F
100
AcDbEntity
  8
0
  6
Continuous
 62
     7
370
    25
100
AcDbSpline
210
0.0
220
0.0
230
1.0
 70
     8
 71
     3
 72
    62
 73
    58
 74
     0
 42
0.000000001
 43
0.00000001
 40
0.0000000000217727
 40
0.0000000000217727
 40
0.0000000000217727
 40
0.0000000000217727
 40
0.0044380347250315
 40
0.0044380347250315
 40
0.0066570520766608
 40
0.0066570520766608
 40
0.0088760694282902
 40
0.0088760694282902
 40
0.0133141041315489
 40
0.0133141041315489
 40
0.0155331214831783
 40
0.0155331214831783
 40
0.016642630158993
 40
0.016642630158993
 40
0.0177521388348077
 40
0.0177521388348077
 40
0.0221901735380664
 40
0.0221901735380664
 40
0.0232996822138811
 40
0.0232996822138811
 40
0.0244091908896958
 40
0.0244091908896958
 40
0.0266282082413251
 40
0.0266282082413251
 40
0.0310662429445839
 40
0.0310662429445839
 40
0.0321757516203986
 40
0.0321757516203986
 40
0.0332852602962133
 40
0.0332852602962133
 40
0.0355042776478426
 40
0.0355042776478426
 40
0.037723294999472
 40
0.037723294999472
 40
0.0388328036752867
 40
0.0388328036752867
 40
0.0399423123511014
 40
0.0399423123511014
 40
0.0443803470543601
 40
0.0443803470543601
 40
0.0465993644059895
 40
0.0465993644059895
 40
0.0488183817576188
 40
0.0488183817576188
 40
0.0532564164608776
 40
0.0532564164608776
 40
0.0554754338125069
 40
0.0554754338125069
 40
0.0576944511641363
 40
0.0576944511641363
 40
0.062132485867395
 40
0.062132485867395
 40
0.0643515032190244
 40
0.0643515032190244
 40
0.0665705205706538
 40
0.0665705205706538
 40
0.0710085552739125
 40
0.0710085552739125
 40
0.0710085552739125
 40
0.0710085552739125
 10
148.1772744418508
 20
150.8054535808235
 30
0.0
 10
149.6777620887816
 20
150.7914453503811
 30
0.0
 10
151.1529785243365
 20
150.6358566225753
 30
0.0
 10
153.3289637311537
 20
150.1986647348704
 30
0.0
 10
154.0481296449755
 20
150.0186943082126
 30
0.0
 10
155.4739393247869
 20
149.5891783459937
 30
0.0
 10
156.1839514883671
 20
149.3379372043386
 30
0.0
 10
158.2552729433285
 20
148.4922029619408
 30
0.0
 10
159.5667167764497
 20
147.8057992178542
 30
0.0
 10
161.4311366575502
 20
146.5948110845536
 30
0.0
 10
162.0353244357647
 20
146.1606333721917
 30
0.0
 10
162.9152169322901
 20
145.462780655795
 30
0.0
 10
163.2037728911612
 20
145.2224922951819
 30
0.0
 10
163.7658939122051
 20
144.7313967844267
 30
0.0
 10
164.0402416532511
 20
144.4799826277696
 30
0.0
 10
165.3788941328203
 20
143.1939972396793
 30
0.0
 10
166.3450302012847
 20
142.0736347690723
 30
0.0
 10
167.4208766485171
 20
140.5579788031588
 30
0.0
 10
167.6293684162919
 20
140.2490120123412
 30
0.0
 10
168.0327725438028
 20
139.6192111593841
 30
0.0
 10
168.2278900830362
 20
139.2979254399702
 30
0.0
 10
168.7868194134389
 20
138.3264578168355
 30
0.0
 10
169.1263886769152
 20
137.6655884581993
 30
0.0
 10
170.0478431860025
 20
135.644066827141
 30
0.0
 10
170.5336455221606
 20
134.2449692956556
 30
0.0
 10
170.9755404457249
 20
132.429933366752
 30
0.0
 10
171.0557365344268
 20
132.0626684832581
 30
0.0
 10
171.1978148659172
 20
131.3283463388748
 30
0.0
 10
171.2598567978685
 20
130.9608023144475
 30
0.0
 10
171.4194205418173
 20
129.8570396717712
 30
0.0
 10
171.4906192402085
 20
129.1197006541377
 30
0.0
 10
171.5634532569657
 20
127.6420617697352
 30
0.0
 10
171.5648975671199
 20
126.9017537730205
 30
0.0
 10
171.514096510818
 20
125.789037303823
 30
0.0
 10
171.488352885897
 20
125.4177568337244
 30
0.0
 10
171.4190633618751
 20
124.6744381694473
 30
0.0
 10
171.3753076929674
 20
124.301398897133
 30
0.0
 10
171.1126656395066
 20
122.4481594633249
 30
0.0
 10
170.76506238313
 20
121.0074585868264
 30
0.0
 10
170.0448264090396
 20
118.9069876130037
 30
0.0
 10
169.7711748030032
 20
118.2170597093481
 30
0.0
 10
169.1551284662526
 20
116.8581487247966
 30
0.0
 10
168.811759733446
 20
116.1877722034972
 30
0.0
 10
167.6998542736853
 20
114.2507348342227
 30
0.0
 10
166.8444811081867
 20
113.0432029795085
 30
0.0
 10
165.3925736059961
 20
111.3559502743595
 30
0.0
 10
164.8794618057648
 20
110.8138404316869
 30
0.0
 10
163.7968327131923
 20
109.7756046585193
 30
0.0
 10
163.2350198457415
 20
109.2864610064399
 30
0.0
 10
161.4900767711513
 20
107.906042103072
 30
0.0
 10
160.2478081558347
 20
107.1012436174022
 30
0.0
 10
158.2647328979508
 20
106.0690400555642
 30
0.0
 10
157.5804975755624
 20
105.7535624235833
 30
0.0
 10
156.1982491988933
 20
105.1950072736334
 30
0.0
 10
155.4977784857159
 20
104.9501107102964
 30
0.0
 10
153.3689239105331
 20
104.3163674913389
 30
0.0
 10
151.9132934657245
 20
104.0275366121873
 30
0.0
 10
150.4198995439974
 20
103.8780384629405
 30
0.0
  0
LINE
  5
83
330
1F
100
AcDbEntity
  8
0
  6
Continuous
 62
     7
370
    25
100
AcDbLine
 10
127.3491812853
 20
191.4324271958
 30
0.0
 11
148.1772744639
 21
150.8054535806
 31
0.0
  0
LINE
  5
84
330
1F
100
AcDbEntity
  8
0
  6
Continuous
 62
     7
370
    25
100
AcDbLine
 10
127.2107632009
 20
191.8619893344
 30
0.0
 11
127.3491812853
 21
191.4324271958
 31
0.0
  0
LINE
  5
85
330
1F
100
AcDbEntity
  8
0
  6
Continuous
 62
     7
370
    25
100
AcDbLine
 10
122.8932181967
 20
201.4532344981
 30
0.0
 11
127.2107632009
 21
191.8619893344
 31
0.0
  0
LINE
  5
86
330
1F
100
AcDbEntity
  8
0
  6
Continuous
 62
     7
370
    25
100
AcDbLine
 10
79.7555391997
 20
201.4532344981
 30
0.0
 11
122.8932181967
 21
201.4532344981
 31
0.0
  0
LINE
  5
87
330
1F
100
AcDbEntity
  8
0
  6
Continuous
 62
     7
370
    25
100
AcDbLine
 10
79.7555391997
 20
201.4532344981
 30
0.0
 11
75.4379941955
 21
191.8619893344
 31
0.0
  0
LINE
  5
88
330
1F
100
AcDbEntity
  8
0
  6
Continuous
 62
     7
370
    25
100
AcDbLine
 10
75.2995761112
 20
191.4324271958
 30
0.0
 11
75.4379941955
 21
191.8619893344
 31
0.0
  0
LINE
  5
89
330
1F
100
AcDbEntity
  8
0
  6
Continuous
 62
     7
370
    25
100
AcDbLine
 10
75.2995761112
 20
191.4324271958
 30
0.0
 11
54.4714829325
 21
150.8054535806
 31
0.0
  0
SPLINE
  5
8A
330
1F
100
AcDbEntity
  8
0
  6
Continuous
 62
     7
370
    25
100
AcDbSpline
210
0.0
220
0.0
230
1.0
 70
     8
 71
     3
 72
    62
 73
    58
 74
     0
 42
0.000000001
 43
0.00000001
 40
0.0000000000217727
 40
0.0000000000217727
 40
0.0000000000217727
 40
0.0000000000217727
 40
0.0044380347250315
 40
0.0044380347250315
 40
0.0066570520766608
 40
0.0066570520766608
 40
0.0088760694282902
 40
0.0088760694282902
 40
0.0133141041315489
 40
0.0133141041315489
 40
0.0155331214831783
 40
0.0155331214831783
 40
0.016642630158993
 40
0.016642630158993
 40
0.0177521388348077
 40
0.0177521388348077
 40
0.0221901735380664
 40
0.0221901735380664
 40
0.0232996822138811
 40
0.0232996822138811
 40
0.0244091908896958
 40
0.0244091908896958
 40
0.0266282082413251
 40
0.0266282082413251
 40
0.0310662429445839
 40
0.0310662429445839
 40
0.0321757516203986
 40
0.0321757516203986
 40
0.0332852602962133
 40
0.0332852602962133
 40
0.0355042776478426
 40
0.0355042776478426
 40
0.037723294999472
 40
0.037723294999472
 40
0.0388328036752867
 40
0.0388328036752867
 40
0.0399423123511014
 40
0.0399423123511014
 40
0.0443803470543601
 40
0.0443803470543601
 40
0.0465993644059895
 40
0.0465993644059895
 40
0.0488183817576188
 40
0.0488183817576188
 40
0.0532564164608776
 40
0.0532564164608776
 40
0.0554754338125069
 40
0.0554754338125069
 40
0.0576944511641363
 40
0.0576944511641363
 40
0.062132485867395
 40
0.062132485867395
 40
0.0643515032190244
 40
0.0643515032190244
 40
0.0665705205706538
 40
0.0665705205706538
 40
0.0710085552739125
 40
0.0710085552739125
 40
0.0710085552739125
 40
0.0710085552739125
 10
54.47148295459855
 20
150.8054535808235
 30
0.0
 10
52.97099530766774
 20
150.7914453503811
 30
0.0
 10
51.49577887211284
 20
150.6358566225753
 30
0.0
 10
49.31979366529556
 20
150.1986647348704
 30
0.0
 10
48.60062775147383
 20
150.0186943082126
 30
0.0
 10
47.17481807166237
 20
149.5891783459937
 30
0.0
 10
46.46480590808224
 20
149.3379372043386
 30
0.0
 10
44.39348445312077
 20
148.4922029619408
 30
0.0
 10
43.08204061999965
 20
147.8057992178542
 30
0.0
 10
41.21762073889909
 20
146.5948110845536
 30
0.0
 10
40.61343296068458
 20
146.1606333721918
 30
0.0
 10
39.73354046415924
 20
145.4627806557951
 30
0.0
 10
39.44498450528813
 20
145.2224922951819
 30
0.0
 10
38.88286348424421
 20
144.7313967844267
 30
0.0
 10
38.60851574319826
 20
144.4799826277696
 30
0.0
 10
37.26986326362905
 20
143.1939972396793
 30
0.0
 10
36.30372719516467
 20
142.0736347690723
 30
0.0
 10
35.22788074793226
 20
140.5579788031588
 30
0.0
 10
35.01938898015741
 20
140.2490120123412
 30
0.0
 10
34.61598485264647
 20
139.6192111593841
 30
0.0
 10
34.42086731341315
 20
139.2979254399702
 30
0.0
 10
33.86193798301038
 20
138.3264578168355
 30
0.0
 10
33.52236871953421
 20
137.6655884581993
 30
0.0
 10
32.60091421044684
 20
135.644066827141
 30
0.0
 10
32.11511187428876
 20
134.2449692956556
 30
0.0
 10
31.67321695072442
 20
132.4299333667521
 30
0.0
 10
31.59302086202251
 20
132.0626684832582
 30
0.0
 10
31.45094253053213
 20
131.3283463388748
 30
0.0
 10
31.38890059858085
 20
130.9608023144475
 30
0.0
 10
31.22933685463203
 20
129.8570396717712
 30
0.0
 10
31.15813815624077
 20
129.1197006541377
 30
0.0
 10
31.08530413948371
 20
127.6420617697352
 30
0.0
 10
31.0838598293294
 20
126.9017537730205
 30
0.0
 10
31.1346608856313
 20
125.789037303823
 30
0.0
 10
31.1604045105523
 20
125.4177568337244
 30
0.0
 10
31.22969403457423
 20
124.6744381694473
 30
0.0
 10
31.27344970348198
 20
124.301398897133
 30
0.0
 10
31.53609175694277
 20
122.4481594633249
 30
0.0
 10
31.88369501331925
 20
121.0074585868264
 30
0.0
 10
32.60393098740977
 20
118.9069876130037
 30
0.0
 10
32.87758259344617
 20
118.2170597093481
 30
0.0
 10
33.49362893019672
 20
116.8581487247966
 30
0.0
 10
33.83699766300335
 20
116.1877722034973
 30
0.0
 10
34.94890312276405
 20
114.2507348342227
 30
0.0
 10
35.80427628826263
 20
113.0432029795086
 30
0.0
 10
37.25618379045326
 20
111.3559502743595
 30
0.0
 10
37.76929559068454
 20
110.8138404316869
 30
0.0
 10
38.85192468325704
 20
109.7756046585193
 30
0.0
 10
39.41373755070781
 20
109.2864610064399
 30
0.0
 10
41.15868062529803
 20
107.9060421030721
 30
0.0
 10
42.4009492406146
 20
107.1012436174022
 30
0.0
 10
44.38402449849856
 20
106.0690400555642
 30
0.0
 10
45.06825982088694
 20
105.7535624235834
 30
0.0
 10
46.45050819755608
 20
105.1950072736334
 30
0.0
 10
47.15097891073338
 20
104.9501107102964
 30
0.0
 10
49.27983348591619
 20
104.3163674913389
 30
0.0
 10
50.73546393072478
 20
104.0275366121873
 30
0.0
 10
52.2288578524519
 20
103.8780384629405
 30
0.0
  0
LINE
  5
8B
330
1F
100
AcDbEntity
  8
0
  6
Continuous
 62
     7
370
    25
100
AcDbLine
 10
52.228857857
 20
103.8780384625
 30
0.0
 11
54.2244799605
 21
61.5055936287
 31
0.0
  0
LINE
  5
8C
330
1F
100
AcDbEntity
  8
0
  6
Continuous
 62
     7
370
    25
100
AcDbLine
 10
54.2244799605
 20
61.5055936287
 30
0.0
 11
95.3639696427
 21
61.6981815828
 31
0.0
  0
LINE
  5
8D
330
1F
100
AcDbEntity
  8
0
  6
Continuous
 62
     7
370
    25
100
AcDbLine
 10
95.3639696427
 20
61.6981815828
 30
0.0
 11
94.5268348547
 21
45.2886404385
 31
0.0
  0
LINE
  5
8E
330
1F
100
AcDbEntity
  8
0
  6
Continuous
 62
     7
370
    25
100
AcDbLine
 10
41.9507600868
 20
51.4577403788
 30
0.0
 11
94.5268348547
 21
45.2886404385
 31
0.0
  0
LINE
  5
8F
330
1F
100
AcDbEntity
  8
0
  6
Continuous
 62
     7
370
    25
100
AcDbLine
 10
41.9507600868
 20
51.4577403788
 30
0.0
 11
22.426774046
 21
131.4315583292
 31
0.0
  0
LINE
  5
90
330
1F
100
AcDbEntity
  8
0
  6
Continuous
 62
     7
370
    25
100
AcDbLine
 10
50.5045156313
 20
208.4521522914
 30
0.0
 11
22.426774046
 21
131.4315583292
 31
0.0
  0
LINE
  5
91
330
1F
100
AcDbEntity
  8
0
  6
Continuous
 62
     7
370
    25
100
AcDbLine
 10
50.614587478
 20
208.9011717398
 30
0.0
 11
50.5045156313
 21
208.4521522914
 31
0.0
  0
LINE
  5
92
330
1F
100
AcDbEntity
  8
0
  6
Continuous
 62
     7
370
    25
100
AcDbLine
 10
58.2832577585
 20
224.0578684373
 30
0.0
 11
50.614587478
 21
208.9011717398
 31
0.0
  0
LINE
  5
93
330
1F
100
AcDbEntity
  8
0
  6
Continuous
 62
     7
370
    25
100
AcDbLine
 10
144.365499638
 20
224.0578684373
 30
0.0
 11
58.2832577585
 21
224.0578684373
 31
0.0
  0
ELLIPSE
  5
94
330
1F
100
AcDbEntity
  8
0
  6
Continuous
 62
     7
370
    25
100
AcDbEllipse
 10
128.3243786982
 20
207.9509492707
 30
0.0
 11
0.0
 21
5.330989712400168
 31
0.0
210
0.0
220
0.0
230
1.0
 40
0.984807753
 41
0.0
 42
6.283185307179586
  0
MTEXT
  5
96
330
1F
100
AcDbEntity
  8
0
  6
Continuous
 62
     7
370
     0
100
AcDbMText
 10
64.65559864
 20
204.438517723
 30
0.0
 40
3.5
 41
0.0
 71
     2
 72
     1
  1
DOWN  26.57°  R 0.1
  7
SLDTEXTSTYLE0
 11
0.8244589427248471
 21
-0.5659217717679955
 31
0.0
 73
     1
 44
1.0
  0
MTEXT
  5
97
330
1F
100
AcDbEntity
  8
0
  6
Continuous
 62
     7
370
     0
100
AcDbMText
 10
136.3018696718
 20
203.2775899124
 30
0.0
 40
3.5
 41
0.0
 71
     2
 72
     1
  1
DOWN  26.57°  R 0.1
  7
SLDTEXTSTYLE0
 11
0.8244589427248357
 21
0.5659217717680123
 31
0.0
 73
     1
 44
1.0
  0
MTEXT
  5
99
330
1F
100
AcDbEntity
  8
0
  6
Continuous
 62
     7
370
     0
100
AcDbMText
 10
62.8178698225
 20
34.1923147481
 30
0.0
 40
3.5
 41
0.0
 71
     1
 72
     1
  1
RKid - Pump foam seal 4_4_2020
  7
SLDTEXTSTYLE1
 73
     1
 44
1.0
  0
MTEXT
  5
9A
330
1F
100
AcDbEntity
  8
0
  6
Continuous
 62
     7
370
     0
100
AcDbMText
 10
81.5623142971
 20
25.8497448169
 30
0.0
 40
3.5
 41
0.0
 71
     1
 72
     1
  1
www.rkid.co.za
  7
SLDTEXTSTYLE1
 73
     1
 44
1.0
  0
MTEXT
  5
9B
330
1F
100
AcDbEntity
  8
0
  6
Continuous
 62
     7
370
     0
100
AcDbMText
 10
80.4223898279
 20
235.7748095138
 30
0.0
 40
3.5
 41
0.0
 71
     1
 72
     1
  1
Soft foam 3mm thick
  7
SLDTEXTSTYLE1
 73
     1
 44
1.0
  0
ENDSEC
  0
SECTION
  2
OBJECTS
  0
DICTIONARY
  5
C
330
0
100
AcDbDictionary
281
     1
  3
ACAD_GROUP
350
D
  3
ACAD_LAYOUT
350
1A
  3
ACAD_MLINESTYLE
350
17
  3
ACAD_PLOTSETTINGS
350
19
  3
ACAD_PLOTSTYLENAME
350
E
  3
ACAD_SCALELIST
350
47
  0
DICTIONARY
  5
D
102
{ACAD_REACTORS
330
C
102
}
330
C
100
AcDbDictionary
281
     1
  0
DICTIONARY
  5
1A
102
{ACAD_REACTORS
330
C
102
}
330
C
100
AcDbDictionary
281
     1
  3
Layout1
350
1E
  3
Layout2
350
26
  3
Model
350
22
  0
DICTIONARY
  5
17
102
{ACAD_REACTORS
330
C
102
}
330
C
100
AcDbDictionary
281
     1
  3
Standard
350
18
  0
DICTIONARY
  5
19
102
{ACAD_REACTORS
330
C
102
}
330
C
100
AcDbDictionary
281
     1
  0
ACDBDICTIONARYWDFLT
  5
E
102
{ACAD_REACTORS
330
C
102
}
330
C
100
AcDbDictionary
281
     1
  3
Normal
350
F
100
AcDbDictionaryWithDefault
340
F
  0
DICTIONARY
  5
47
102
{ACAD_REACTORS
330
C
102
}
330
C
100
AcDbDictionary
281
     1
  3
A0
350
48
  3
A1
350
49
  3
A2
350
4A
  3
A3
350
4B
  3
A4
350
4C
  3
A5
350
4D
  3
A6
350
4E
  3
A7
350
4F
  3
A8
350
50
  3
A9
350
51
  3
B0
350
52
  3
B1
350
53
  3
B2
350
54
  3
B3
350
55
  3
B4
350
56
  3
B5
350
57
  3
B6
350
58
  3
B7
350
59
  3
B8
350
5A
  3
B9
350
5B
  3
C0
350
5C
  3
C1
350
5D
  3
C2
350
5E
  3
C3
350
5F
  3
C4
350
60
  3
C5
350
61
  3
C6
350
62
  3
C7
350
63
  3
C8
350
64
  3
C9
350
65
  3
D0
350
66
  3
D1
350
67
  3
D2
350
68
  0
LAYOUT
  5
1E
102
{ACAD_REACTORS
330
1A
102
}
330
1A
100
AcDbPlotSettings
  1

  2
none_device
  4

  6

 40
0.0
 41
0.0
 42
0.0
 43
0.0
 44
0.0
 45
0.0
 46
0.0
 47
0.0
 48
0.0
 49
0.0
140
0.0
141
0.0
142
1.0
143
1.0
 70
   688
 72
     1
 73
     0
 74
     5
  7

 75
    16
147
1.0
148
0.0
149
0.0
100
AcDbLayout
  1
Layout1
 70
     1
 71
     1
 10
0.0
 20
0.0
 11
420.0
 21
297.0
 12
0.0
 22
0.0
 32
0.0
 14
1.0000000000E+20
 24
1.0000000000E+20
 34
1.0000000000E+20
 15
-1.0000000000E+20
 25
-1.0000000000E+20
 35
-1.0000000000E+20
146
0.0
 13
0.0
 23
0.0
 33
0.0
 16
1.0
 26
0.0
 36
0.0
 17
0.0
 27
1.0
 37
0.0
 76
     0
330
1B
  0
LAYOUT
  5
26
102
{ACAD_REACTORS
330
1A
102
}
330
1A
100
AcDbPlotSettings
  1

  2
none_device
  4

  6

 40
0.0
 41
0.0
 42
0.0
 43
0.0
 44
0.0
 45
0.0
 46
0.0
 47
0.0
 48
0.0
 49
0.0
140
0.0
141
0.0
142
1.0
143
1.0
 70
   688
 72
     1
 73
     0
 74
     5
  7

 75
    16
147
1.0
148
0.0
149
0.0
100
AcDbLayout
  1
Layout2
 70
     1
 71
     2
 10
0.0
 20
0.0
 11
0.0
 21
0.0
 12
0.0
 22
0.0
 32
0.0
 14
0.0
 24
0.0
 34
0.0
 15
0.0
 25
0.0
 35
0.0
146
0.0
 13
0.0
 23
0.0
 33
0.0
 16
1.0
 26
0.0
 36
0.0
 17
0.0
 27
1.0
 37
0.0
 76
     0
330
23
  0
LAYOUT
  5
22
102
{ACAD_REACTORS
330
1A
102
}
330
1A
100
AcDbPlotSettings
  1

  2
none_device
  4
Letter_(8.50_x_11.00_Inches)
  6

 40
6.35
 41
6.35
 42
6.35000508
 43
6.35000508
 44
215.9
 45
279.4
 46
0.0
 47
0.0
 48
0.0
 49
0.0
140
0.0
141
0.0
142
1.0
143
1.0
 70
  1712
 72
     1
 73
     0
 74
     0
  7

 75
     0
147
1.0
148
0.0
149
0.0
100
AcDbLayout
  1
Model
 70
     1
 71
     0
 10
0.0
 20
0.0
 11
210.0
 21
290.0
 12
0.0
 22
0.0
 32
0.0
 14
0.0
 24
0.0
 34
0.0
 15
210.0
 25
290.0
 35
0.0
146
0.0
 13
0.0
 23
0.0
 33
0.0
 16
1.0
 26
0.0
 36
0.0
 17
0.0
 27
1.0
 37
0.0
 76
     0
330
1F
331
29
  0
MLINESTYLE
  5
18
102
{ACAD_REACTORS
330
17
102
}
330
17
100
AcDbMlineStyle
  2
Standard
 70
     0
  3

 62
   256
 51
90.0
 52
90.0
 71
     2
 49
0.5
 62
   256
  6
BYLAYER
 49
-0.5
 62
   256
  6
BYLAYER
  0
ACDBPLACEHOLDER
  5
F
102
{ACAD_REACTORS
330
E
102
}
330
E
  0
SCALE
  5
48
102
{ACAD_REACTORS
330
47
102
}
330
47
100
AcDbScale
 70
     0
300
1:1
140
1.0
141
1.0
290
     1
  0
SCALE
  5
49
102
{ACAD_REACTORS
330
47
102
}
330
47
100
AcDbScale
 70
     0
300
1:2
140
1.0
141
2.0
290
     0
  0
SCALE
  5
4A
102
{ACAD_REACTORS
330
47
102
}
330
47
100
AcDbScale
 70
     0
300
1:4
140
1.0
141
4.0
290
     0
  0
SCALE
  5
4B
102
{ACAD_REACTORS
330
47
102
}
330
47
100
AcDbScale
 70
     0
300
1:5
140
1.0
141
5.0
290
     0
  0
SCALE
  5
4C
102
{ACAD_REACTORS
330
47
102
}
330
47
100
AcDbScale
 70
     0
300
1:8
140
1.0
141
8.0
290
     0
  0
SCALE
  5
4D
102
{ACAD_REACTORS
330
47
102
}
330
47
100
AcDbScale
 70
     0
300
1:10
140
1.0
141
10.0
290
     0
  0
SCALE
  5
4E
102
{ACAD_REACTORS
330
47
102
}
330
47
100
AcDbScale
 70
     0
300
1:16
140
1.0
141
16.0
290
     0
  0
SCALE
  5
4F
102
{ACAD_REACTORS
330
47
102
}
330
47
100
AcDbScale
 70
     0
300
1:20
140
1.0
141
20.0
290
     0
  0
SCALE
  5
50
102
{ACAD_REACTORS
330
47
102
}
330
47
100
AcDbScale
 70
     0
300
1:30
140
1.0
141
30.0
290
     0
  0
SCALE
  5
51
102
{ACAD_REACTORS
330
47
102
}
330
47
100
AcDbScale
 70
     0
300
1:40
140
1.0
141
40.0
290
     0
  0
SCALE
  5
52
102
{ACAD_REACTORS
330
47
102
}
330
47
100
AcDbScale
 70
     0
300
1:50
140
1.0
141
50.0
290
     0
  0
SCALE
  5
53
102
{ACAD_REACTORS
330
47
102
}
330
47
100
AcDbScale
 70
     0
300
1:100
140
1.0
141
100.0
290
     0
  0
SCALE
  5
54
102
{ACAD_REACTORS
330
47
102
}
330
47
100
AcDbScale
 70
     0
300
2:1
140
2.0
141
1.0
290
     0
  0
SCALE
  5
55
102
{ACAD_REACTORS
330
47
102
}
330
47
100
AcDbScale
 70
     0
300
4:1
140
4.0
141
1.0
290
     0
  0
SCALE
  5
56
102
{ACAD_REACTORS
330
47
102
}
330
47
100
AcDbScale
 70
     0
300
8:1
140
8.0
141
1.0
290
     0
  0
SCALE
  5
57
102
{ACAD_REACTORS
330
47
102
}
330
47
100
AcDbScale
 70
     0
300
10:1
140
10.0
141
1.0
290
     0
  0
SCALE
  5
58
102
{ACAD_REACTORS
330
47
102
}
330
47
100
AcDbScale
 70
     0
300
100:1
140
100.0
141
1.0
290
     0
  0
SCALE
  5
59
102
{ACAD_REACTORS
330
47
102
}
330
47
100
AcDbScale
 70
     0
300
1/128" = 1'-0"
140
0.0078125
141
12.0
290
     0
  0
SCALE
  5
5A
102
{ACAD_REACTORS
330
47
102
}
330
47
100
AcDbScale
 70
     0
300
1/64" = 1'-0"
140
0.015625
141
12.0
290
     0
  0
SCALE
  5
5B
102
{ACAD_REACTORS
330
47
102
}
330
47
100
AcDbScale
 70
     0
300
1/32" = 1'-0"
140
0.03125
141
12.0
290
     0
  0
SCALE
  5
5C
102
{ACAD_REACTORS
330
47
102
}
330
47
100
AcDbScale
 70
     0
300
1/16" = 1'-0"
140
0.0625
141
12.0
290
     0
  0
SCALE
  5
5D
102
{ACAD_REACTORS
330
47
102
}
330
47
100
AcDbScale
 70
     0
300
3/32" = 1'-0"
140
0.09375
141
12.0
290
     0
  0
SCALE
  5
5E
102
{ACAD_REACTORS
330
47
102
}
330
47
100
AcDbScale
 70
     0
300
1/8" = 1'-0"
140
0.125
141
12.0
290
     0
  0
SCALE
  5
5F
102
{ACAD_REACTORS
330
47
102
}
330
47
100
AcDbScale
 70
     0
300
3/16" = 1'-0"
140
0.1875
141
12.0
290
     0
  0
SCALE
  5
60
102
{ACAD_REACTORS
330
47
102
}
330
47
100
AcDbScale
 70
     0
300
1/4" = 1'-0"
140
0.25
141
12.0
290
     0
  0
SCALE
  5
61
102
{ACAD_REACTORS
330
47
102
}
330
47
100
AcDbScale
 70
     0
300
3/8" = 1'-0"
140
0.375
141
12.0
290
     0
  0
SCALE
  5
62
102
{ACAD_REACTORS
330
47
102
}
330
47
100
AcDbScale
 70
     0
300
1/2" = 1'-0"
140
0.5
141
12.0
290
     0
  0
SCALE
  5
63
102
{ACAD_REACTORS
330
47
102
}
330
47
100
AcDbScale
 70
     0
300
3/4" = 1'-0"
140
0.75
141
12.0
290
     0
  0
SCALE
  5
64
102
{ACAD_REACTORS
330
47
102
}
330
47
100
AcDbScale
 70
     0
300
1" = 1'-0"
140
1.0
141
12.0
290
     0
  0
SCALE
  5
65
102
{ACAD_REACTORS
330
47
102
}
330
47
100
AcDbScale
 70
     0
300
1-1/2" = 1'-0"
140
1.5
141
12.0
290
     0
  0
SCALE
  5
66
102
{ACAD_REACTORS
330
47
102
}
330
47
100
AcDbScale
 70
     0
300
3" = 1'-0"
140
3.0
141
12.0
290
     0
  0
SCALE
  5
67
102
{ACAD_REACTORS
330
47
102
}
330
47
100
AcDbScale
 70
     0
300
6" = 1'-0"
140
6.0
141
12.0
290
     0
  0
SCALE
  5
68
102
{ACAD_REACTORS
330
47
102
}
330
47
100
AcDbScale
 70
     0
300
1'-0" = 1'-0"
140
12.0
141
12.0
290
     0
  0
ENDSEC
  0
EOF
