  0
SECTION
  2
HEADER
  9
$ACADVER
  1
AC1015
  9
$ACADMAINTVER
 70
     6
  9
$DWGCODEPAGE
  3
ANSI_1252
  9
$INSBASE
 10
0.0
 20
0.0
 30
0.0
  9
$EXTMIN
 10
0.0
 20
0.0
 30
0.0
  9
$EXTMAX
 10
297.0
 20
600.0
 30
0.0
  9
$LIMMIN
 10
0.0
 20
0.0
  9
$LIMMAX
 10
297.0
 20
600.0
  9
$ORTHOMODE
 70
     0
  9
$REGENMODE
 70
     1
  9
$FILLMODE
 70
     1
  9
$QTEXTMODE
 70
     0
  9
$MIRRTEXT
 70
     1
  9
$LTSCALE
 40
1.0
  9
$ATTMODE
 70
     1
  9
$TEXTSIZE
 40
3.5
  9
$TRACEWID
 40
1.0
  9
$TEXTSTYLE
  7
Standard
  9
$CLAYER
  8
0
  9
$CELTYPE
  6
ByLayer
  9
$CECOLOR
 62
   256
  9
$CELTSCALE
 40
1.0
  9
$DISPSILH
 70
     0
  9
$DIMSCALE
 40
1.0
  9
$DIMASZ
 40
3.302
  9
$DIMEXO
 40
1.0
  9
$DIMDLI
 40
3.75
  9
$DIMRND
 40
0.0
  9
$DIMDLE
 40
0.0
  9
$DIMEXE
 40
1.0
  9
$DIMTP
 40
0.0
  9
$DIMTM
 40
0.0
  9
$DIMTXT
 40
3.5
  9
$DIMCEN
 40
2.5
  9
$DIMTSZ
 40
0.0
  9
$DIMTOL
 70
     0
  9
$DIMLIM
 70
     0
  9
$DIMTIH
 70
     1
  9
$DIMTOH
 70
     1
  9
$DIMSE1
 70
     0
  9
$DIMSE2
 70
     0
  9
$DIMTAD
 70
     1
  9
$DIMZIN
 70
     1
  9
$DIMBLK
  1

  9
$DIMASO
 70
     1
  9
$DIMSHO
 70
     1
  9
$DIMPOST
  1

  9
$DIMAPOST
  1

  9
$DIMALT
 70
     0
  9
$DIMALTD
 70
     3
  9
$DIMALTF
 40
0.0393700787
  9
$DIMLFAC
 40
1.0
  9
$DIMTOFL
 70
     1
  9
$DIMTVP
 40
0.0
  9
$DIMTIX
 70
     0
  9
$DIMSOXD
 70
     0
  9
$DIMSAH
 70
     0
  9
$DIMBLK1
  1

  9
$DIMBLK2
  1

  9
$DIMSTYLE
  2
ISO-25
  9
$DIMCLRD
 70
     0
  9
$DIMCLRE
 70
     0
  9
$DIMCLRT
 70
     0
  9
$DIMTFAC
 40
1.0
  9
$DIMGAP
 40
1.524
  9
$DIMJUST
 70
     0
  9
$DIMSD1
 70
     0
  9
$DIMSD2
 70
     0
  9
$DIMTOLJ
 70
     0
  9
$DIMTZIN
 70
     1
  9
$DIMALTZ
 70
     0
  9
$DIMALTTZ
 70
     0
  9
$DIMUPT
 70
     0
  9
$DIMDEC
 70
     2
  9
$DIMTDEC
 70
     2
  9
$DIMALTU
 70
     2
  9
$DIMALTTD
 70
     3
  9
$DIMTXSTY
  7
Standard
  9
$DIMAUNIT
 70
     0
  9
$DIMADEC
 70
     2
  9
$DIMALTRND
 40
0.0
  9
$DIMAZIN
 70
     0
  9
$DIMDSEP
 70
    44
  9
$DIMATFIT
 70
     3
  9
$DIMFRAC
 70
     0
  9
$DIMLDRBLK
  1

  9
$DIMLUNIT
 70
     2
  9
$DIMLWD
 70
    -2
  9
$DIMLWE
 70
    -2
  9
$DIMTMOVE
 70
     0
  9
$LUNITS
 70
     2
  9
$LUPREC
 70
     2
  9
$SKETCHINC
 40
1.0
  9
$FILLETRAD
 40
10.0
  9
$AUNITS
 70
     0
  9
$AUPREC
 70
     2
  9
$MENU
  1
.
  9
$ELEVATION
 40
0.0
  9
$PELEVATION
 40
0.0
  9
$THICKNESS
 40
0.0
  9
$LIMCHECK
 70
     0
  9
$CHAMFERA
 40
0.0
  9
$CHAMFERB
 40
0.0
  9
$CHAMFERC
 40
0.0
  9
$CHAMFERD
 40
0.0
  9
$SKPOLY
 70
     0
  9
$TDCREATE
 40
2458948.397421273
  9
$TDUCREATE
 40
2458948.31408794
  9
$TDUPDATE
 40
2458948.397421655
  9
$TDUUPDATE
 40
2458948.314088322
  9
$TDINDWG
 40
0.0000000116
  9
$TDUSRTIMER
 40
0.0000000116
  9
$USRTIMER
 70
     1
  9
$ANGBASE
 50
0.0
  9
$ANGDIR
 70
     0
  9
$PDMODE
 70
     0
  9
$PDSIZE
 40
-1.0
  9
$PLINEWID
 40
0.0
  9
$SPLFRAME
 70
     0
  9
$SPLINETYPE
 70
     6
  9
$SPLINESEGS
 70
     8
  9
$HANDSEED
  5
135
  9
$SURFTAB1
 70
     6
  9
$SURFTAB2
 70
     6
  9
$SURFTYPE
 70
     6
  9
$SURFU
 70
     6
  9
$SURFV
 70
     6
  9
$UCSBASE
  2

  9
$UCSNAME
  2

  9
$UCSORG
 10
0.0
 20
0.0
 30
0.0
  9
$UCSXDIR
 10
1.0
 20
0.0
 30
0.0
  9
$UCSYDIR
 10
0.0
 20
1.0
 30
0.0
  9
$UCSORTHOREF
  2

  9
$UCSORTHOVIEW
 70
     0
  9
$UCSORGTOP
 10
0.0
 20
0.0
 30
0.0
  9
$UCSORGBOTTOM
 10
0.0
 20
0.0
 30
0.0
  9
$UCSORGLEFT
 10
0.0
 20
0.0
 30
0.0
  9
$UCSORGRIGHT
 10
0.0
 20
0.0
 30
0.0
  9
$UCSORGFRONT
 10
0.0
 20
0.0
 30
0.0
  9
$UCSORGBACK
 10
0.0
 20
0.0
 30
0.0
  9
$PUCSBASE
  2

  9
$PUCSNAME
  2

  9
$PUCSORG
 10
0.0
 20
0.0
 30
0.0
  9
$PUCSXDIR
 10
1.0
 20
0.0
 30
0.0
  9
$PUCSYDIR
 10
0.0
 20
1.0
 30
0.0
  9
$PUCSORTHOREF
  2

  9
$PUCSORTHOVIEW
 70
     0
  9
$PUCSORGTOP
 10
0.0
 20
0.0
 30
0.0
  9
$PUCSORGBOTTOM
 10
0.0
 20
0.0
 30
0.0
  9
$PUCSORGLEFT
 10
0.0
 20
0.0
 30
0.0
  9
$PUCSORGRIGHT
 10
0.0
 20
0.0
 30
0.0
  9
$PUCSORGFRONT
 10
0.0
 20
0.0
 30
0.0
  9
$PUCSORGBACK
 10
0.0
 20
0.0
 30
0.0
  9
$USERI1
 70
     0
  9
$USERI2
 70
     0
  9
$USERI3
 70
     0
  9
$USERI4
 70
     0
  9
$USERI5
 70
     0
  9
$USERR1
 40
0.0
  9
$USERR2
 40
0.0
  9
$USERR3
 40
0.0
  9
$USERR4
 40
0.0
  9
$USERR5
 40
0.0
  9
$WORLDVIEW
 70
     1
  9
$SHADEDGE
 70
     3
  9
$SHADEDIF
 70
    70
  9
$TILEMODE
 70
     1
  9
$MAXACTVP
 70
    64
  9
$PINSBASE
 10
0.0
 20
0.0
 30
0.0
  9
$PLIMCHECK
 70
     0
  9
$PEXTMIN
 10
1.0000000000E+20
 20
1.0000000000E+20
 30
1.0000000000E+20
  9
$PEXTMAX
 10
-1.0000000000E+20
 20
-1.0000000000E+20
 30
-1.0000000000E+20
  9
$PLIMMIN
 10
0.0
 20
0.0
  9
$PLIMMAX
 10
420.0
 20
297.0
  9
$UNITMODE
 70
     0
  9
$VISRETAIN
 70
     1
  9
$PLINEGEN
 70
     0
  9
$PSLTSCALE
 70
     1
  9
$TREEDEPTH
 70
  3020
  9
$CMLSTYLE
  2
Standard
  9
$CMLJUST
 70
     0
  9
$CMLSCALE
 40
20.0
  9
$PROXYGRAPHICS
 70
     1
  9
$MEASUREMENT
 70
     1
  9
$CELWEIGHT
370
    -1
  9
$ENDCAPS
280
     0
  9
$JOINSTYLE
280
     0
  9
$LWDISPLAY
290
     1
  9
$INSUNITS
 70
     4
  9
$HYPERLINKBASE
  1

  9
$STYLESHEET
  1

  9
$XEDIT
290
     1
  9
$CEPSNTYPE
380
     0
  9
$PSTYLEMODE
290
     1
  9
$FINGERPRINTGUID
  2
{2D2E6D0A-872D-4B5F-9BFB-FDD717F1E206}
  9
$VERSIONGUID
  2
{FAEB1C32-E019-11D5-929B-00C0DF256EC4}
  9
$EXTNAMES
290
     1
  9
$PSVPSCALE
 40
0.0
  9
$OLESTARTUP
290
     0
  0
ENDSEC
  0
SECTION
  2
CLASSES
  0
CLASS
  1
ACDBDICTIONARYWDFLT
  2
AcDbDictionaryWithDefault
  3
ObjectDBX Classes
 90
        0
280
     0
281
     0
  0
CLASS
  1
VISUALSTYLE
  2
AcDbVisualStyle
  3
ObjectDBX Classes
 90
     4095
280
     0
281
     0
  0
CLASS
  1
MATERIAL
  2
AcDbMaterial
  3
ObjectDBX Classes
 90
     1153
280
     0
281
     0
  0
CLASS
  1
SCALE
  2
AcDbScale
  3
ObjectDBX Classes
 90
     1153
280
     0
281
     0
  0
CLASS
  1
TABLESTYLE
  2
AcDbTableStyle
  3
ObjectDBX Classes
 90
     4095
280
     0
281
     0
  0
CLASS
  1
MLEADERSTYLE
  2
AcDbMLeaderStyle
  3
ACDB_MLEADERSTYLE_CLASS
 90
     4095
280
     0
281
     0
  0
CLASS
  1
SUN
  2
AcDbSun
  3
SCENEOE
 90
     1153
280
     0
281
     0
  0
CLASS
  1
ACDBPLACEHOLDER
  2
AcDbPlaceHolder
  3
ObjectDBX Classes
 90
        0
280
     0
281
     0
  0
CLASS
  1
LAYOUT
  2
AcDbLayout
  3
ObjectDBX Classes
 90
        0
280
     0
281
     0
  0
ENDSEC
  0
SECTION
  2
TABLES
  0
TABLE
  2
VPORT
  5
8
330
0
100
AcDbSymbolTable
 70
     1
  0
VPORT
  5
29
330
8
100
AcDbSymbolTableRecord
100
AcDbViewportTableRecord
  2
*Active
 70
     0
 10
0.0
 20
0.0
 11
1.0
 21
1.0
 12
148.5
 22
300.0
 13
0.0
 23
0.0
 14
10.0
 24
10.0
 15
10.0
 25
10.0
 16
0.0
 26
0.0
 36
1.0
 17
0.0
 27
0.0
 37
0.0
 40
600.0
 41
0.495
 42
50.0
 43
0.0
 44
0.0
 50
0.0
 51
0.0
 71
     0
 72
  2000
 73
     1
 74
     3
 75
     0
 76
     0
 77
     0
 78
     0
281
     0
 65
     1
110
0.0
120
0.0
130
0.0
111
1.0
121
0.0
131
0.0
112
0.0
122
1.0
132
0.0
 79
     0
146
0.0
  0
ENDTAB
  0
TABLE
  2
LTYPE
  5
5
330
0
100
AcDbSymbolTable
 70
     6
  0
LTYPE
  5
14
330
5
100
AcDbSymbolTableRecord
100
AcDbLinetypeTableRecord
  2
ByBlock
 70
     0
  3

 72
    65
 73
     0
 40
0.0
  0
LTYPE
  5
15
330
5
100
AcDbSymbolTableRecord
100
AcDbLinetypeTableRecord
  2
ByLayer
 70
     0
  3

 72
    65
 73
     0
 40
0.0
  0
LTYPE
  5
16
330
5
100
AcDbSymbolTableRecord
100
AcDbLinetypeTableRecord
  2
Continuous
 70
     0
  3
Solid line
 72
    65
 73
     0
 40
0.0
  0
LTYPE
  5
6E
330
5
100
AcDbSymbolTableRecord
100
AcDbLinetypeTableRecord
  2
HIDDEN
 70
     0
  3
Hidden __ __ __ __ __ __ __ __ __ __ __ __ __ __
 72
    65
 73
     2
 40
1.905
 49
1.27
 74
     0
 49
-0.635
 74
     0
  0
LTYPE
  5
6F
330
5
100
AcDbSymbolTableRecord
100
AcDbLinetypeTableRecord
  2
PHANTOM
 70
     0
  3
Phantom ______  __  __  ______  __  __  ______
 72
    65
 73
     6
 40
12.7
 49
6.35
 74
     0
 49
-1.27
 74
     0
 49
1.27
 74
     0
 49
-1.27
 74
     0
 49
1.27
 74
     0
 49
-1.27
 74
     0
  0
LTYPE
  5
70
330
5
100
AcDbSymbolTableRecord
100
AcDbLinetypeTableRecord
  2
CENTER
 70
     0
  3
Center ____ _ ____ _ ____ _ ____ _ ____ _ ____
 72
    65
 73
     4
 40
10.16
 49
6.35
 74
     0
 49
-1.27
 74
     0
 49
1.27
 74
     0
 49
-1.27
 74
     0
  0
LTYPE
  5
71
330
5
100
AcDbSymbolTableRecord
100
AcDbLinetypeTableRecord
  2
CENTERX2
 70
     0
  3
Center (2x) ________  __  ________  __  _____
 72
    65
 73
     4
 40
20.32
 49
12.7
 74
     0
 49
-2.54
 74
     0
 49
2.54
 74
     0
 49
-2.54
 74
     0
  0
LTYPE
  5
72
330
5
100
AcDbSymbolTableRecord
100
AcDbLinetypeTableRecord
  2
DOT2
 70
     0
  3
Dot (.5x) ........................................
 72
    65
 73
     2
 40
0.635
 49
0.0
 74
     0
 49
-0.635
 74
     0
  0
ENDTAB
  0
TABLE
  2
LAYER
  5
2
330
0
100
AcDbSymbolTable
 70
     2
  0
LAYER
  5
10
330
2
100
AcDbSymbolTableRecord
100
AcDbLayerTableRecord
  2
0
 70
     0
 62
     7
  6
Continuous
370
    -3
390
F
  0
LAYER
  5
73
330
2
100
AcDbSymbolTableRecord
100
AcDbLayerTableRecord
  2
FORMAT
 70
     0
 62
     7
  6
Continuous
370
    -3
390
F
  0
ENDTAB
  0
TABLE
  2
STYLE
  5
3
330
0
100
AcDbSymbolTable
 70
     2
  0
STYLE
  5
11
330
3
100
AcDbSymbolTableRecord
100
AcDbTextStyleTableRecord
  2
Standard
 70
     0
 40
0.0
 41
1.0
 50
0.0
 71
     0
 42
3.5
  3
txt
  4

  0
STYLE
  5
74
330
3
100
AcDbSymbolTableRecord
100
AcDbTextStyleTableRecord
  2
SLDTEXTSTYLE0
 70
     0
 40
0.0
 41
0.75
 50
0.0
 71
     0
 42
3.5
  3
TXT
  4

  0
ENDTAB
  0
TABLE
  2
VIEW
  5
6
330
0
100
AcDbSymbolTable
 70
     0
  0
ENDTAB
  0
TABLE
  2
UCS
  5
7
330
0
100
AcDbSymbolTable
 70
     0
  0
ENDTAB
  0
TABLE
  2
APPID
  5
9
330
0
100
AcDbSymbolTable
 70
     1
  0
APPID
  5
12
330
9
100
AcDbSymbolTableRecord
100
AcDbRegAppTableRecord
  2
ACAD
 70
     0
  0
ENDTAB
  0
TABLE
  2
DIMSTYLE
  5
A
330
0
100
AcDbSymbolTable
 70
     1
100
AcDbDimStyleTable
  0
DIMSTYLE
105
27
330
A
100
AcDbSymbolTableRecord
100
AcDbDimStyleTableRecord
  2
ISO-25
 70
     0
 41
2.5
 42
0.625
 43
3.75
 44
1.25
 73
     0
 74
     0
 77
     1
 78
     8
140
2.5
141
2.5
143
0.0393700787
147
0.625
171
     3
172
     1
178
     0
271
     2
272
     2
274
     3
278
    44
283
     0
284
     8
340
11
  0
ENDTAB
  0
TABLE
  2
BLOCK_RECORD
  5
1
330
0
100
AcDbSymbolTable
 70
     1
  0
BLOCK_RECORD
  5
1F
330
1
100
AcDbSymbolTableRecord
100
AcDbBlockTableRecord
  2
*Model_Space
340
22
  0
BLOCK_RECORD
  5
1B
330
1
100
AcDbSymbolTableRecord
100
AcDbBlockTableRecord
  2
*Paper_Space
340
1E
  0
BLOCK_RECORD
  5
23
330
1
100
AcDbSymbolTableRecord
100
AcDbBlockTableRecord
  2
*Paper_Space0
340
26
  0
ENDTAB
  0
ENDSEC
  0
SECTION
  2
BLOCKS
  0
BLOCK
  5
20
330
1F
100
AcDbEntity
  8
0
100
AcDbBlockBegin
  2
*Model_Space
 70
     0
 10
0.0
 20
0.0
 30
0.0
  3
*Model_Space
  1

  0
ENDBLK
  5
21
330
1F
100
AcDbEntity
  8
0
100
AcDbBlockEnd
  0
BLOCK
  5
1C
330
1B
100
AcDbEntity
 67
     1
  8
0
100
AcDbBlockBegin
  2
*Paper_Space
 70
     0
 10
0.0
 20
0.0
 30
0.0
  3
*Paper_Space
  1

  0
ENDBLK
  5
1D
330
1B
100
AcDbEntity
 67
     1
  8
0
100
AcDbBlockEnd
  0
BLOCK
  5
24
330
23
100
AcDbEntity
  8
0
100
AcDbBlockBegin
  2
*Paper_Space0
 70
     0
 10
0.0
 20
0.0
 30
0.0
  3
*Paper_Space0
  1

  0
ENDBLK
  5
25
330
23
100
AcDbEntity
  8
0
100
AcDbBlockEnd
  0
ENDSEC
  0
SECTION
  2
ENTITIES
  0
MTEXT
  5
75
330
1F
100
AcDbEntity
  8
0
  6
Continuous
 62
     7
370
     0
100
AcDbMText
 10
59.0543681774
 20
584.7276287447
 30
0.0
 40
6.8791666667
 41
0.0
 71
     1
 72
     1
  1
Medium Density Foam 8mm - 10mm Thick
  7
SLDTEXTSTYLE0
 73
     1
 44
1.0
  0
MTEXT
  5
76
330
1F
100
AcDbEntity
  8
0
  6
Continuous
 62
     7
370
     0
100
AcDbMText
 10
66.6224114319
 20
28.4287471426
 30
0.0
 40
6.8791666667
 41
0.0
 71
     1
 72
     1
  1
RKid - Mask Foam profile 8_8_2020d Mask
  7
SLDTEXTSTYLE0
 73
     1
 44
1.0
  0
MTEXT
  5
77
330
1F
100
AcDbEntity
  8
0
  6
Continuous
 62
     7
370
     0
100
AcDbMText
 10
130.0297990164
 20
14.0072630523
 30
0.0
 40
5.8208333333
 41
0.0
 71
     1
 72
     1
  1
www.rkid.co.za
  7
SLDTEXTSTYLE0
 73
     1
 44
1.0
  0
LINE
  5
78
330
1F
100
AcDbEntity
  8
0
  6
Continuous
 62
     7
370
    25
100
AcDbLine
 10
258.3060975126
 20
448.1606092923
 30
0.0
 11
247.1835573746
 21
480.9611248825
 31
0.0
  0
ARC
  5
79
330
1F
100
AcDbEntity
  8
0
  6
Continuous
 62
     7
370
    25
100
AcDbCircle
 10
163.6027768185
 20
416.0470444088
 30
0.0
 40
100.0
100
AcDbArc
 50
0.0
 51
18.7316180167
  0
LINE
  5
7A
330
1F
100
AcDbEntity
  8
0
  6
Continuous
 62
     7
370
    25
100
AcDbLine
 10
263.6027768185
 20
210.5825587165
 30
0.0
 11
263.6027768185
 21
416.0470444088
 31
0.0
  0
ARC
  5
7B
330
1F
100
AcDbEntity
  8
0
  6
Continuous
 62
     7
370
    25
100
AcDbCircle
 10
258.6027768185
 20
210.5825587165
 30
0.0
 40
5.0
100
AcDbArc
 50
270.0
 51
0.0
  0
LINE
  5
7C
330
1F
100
AcDbEntity
  8
0
  6
Continuous
 62
     7
370
    25
100
AcDbLine
 10
248.6027768185
 20
205.5825587165
 30
0.0
 11
258.6027768185
 21
205.5825587165
 31
0.0
  0
ARC
  5
7D
330
1F
100
AcDbEntity
  8
0
  6
Continuous
 62
     7
370
    25
100
AcDbCircle
 10
248.6027768185
 20
210.5825587165
 30
0.0
 40
4.999999999999943
100
AcDbArc
 50
180.0
 51
270.0
  0
LINE
  5
7E
330
1F
100
AcDbEntity
  8
0
  6
Continuous
 62
     7
370
    25
100
AcDbLine
 10
243.6027768185
 20
361.7808967015
 30
0.0
 11
243.6027768185
 21
210.5825587165
 31
0.0
  0
SPLINE
  5
7F
330
1F
100
AcDbEntity
  8
0
  6
Continuous
 62
     7
370
    25
100
AcDbSpline
210
0.0
220
0.0
230
1.0
 70
     8
 71
     3
 72
     8
 73
     4
 74
     0
 42
0.000000001
 43
0.00000001
 40
0.1417391831709104
 40
0.1417391831709104
 40
0.1417391831709104
 40
0.1417391831709104
 40
0.9913197490492971
 40
0.9913197490492971
 40
0.9913197490492971
 40
0.9913197490492971
 10
218.6100705558649
 20
474.5698046285431
 30
0.0
 10
235.1876185121999
 20
439.6114498769945
 30
0.0
 10
243.5185206057626
 20
402.0151472346748
 30
0.0
 10
243.602776836553
 20
361.7808967015841
 30
0.0
  0
ARC
  5
80
330
1F
100
AcDbEntity
  8
0
  6
Continuous
 62
     7
370
    25
100
AcDbCircle
 10
168.9145734489
 20
451.0037789285
 30
0.0
 40
55.00000000000012
100
AcDbArc
 50
25.3707041939
 51
86.0279660824
  0
SPLINE
  5
81
330
1F
100
AcDbEntity
  8
0
  6
Continuous
 62
     7
370
    25
100
AcDbSpline
210
0.0
220
0.0
230
1.0
 70
     8
 71
     3
 72
     8
 73
     4
 74
     0
 42
0.000000001
 43
0.00000001
 40
0.0
 40
0.0
 40
0.0
 40
0.0
 40
1.0
 40
1.0
 40
1.0
 40
1.0
 10
172.7243989313018
 20
505.8716678053088
 30
0.0
 10
168.1292793573788
 20
506.1907360983619
 30
0.0
 10
163.5080410336852
 20
506.1944269524389
 30
0.0
 10
158.8597669590456
 20
505.8716678053101
 30
0.0
  0
ARC
  5
82
330
1F
100
AcDbEntity
  8
0
  6
Continuous
 62
     7
370
    25
100
AcDbCircle
 10
162.6695924414
 20
451.0037789285
 30
0.0
 40
55.00000000000002
100
AcDbArc
 50
93.9720339176
 51
154.6292958061
  0
SPLINE
  5
83
330
1F
100
AcDbEntity
  8
0
  6
Continuous
 62
     7
370
    25
100
AcDbSpline
210
0.0
220
0.0
230
1.0
 70
     8
 71
     3
 72
     8
 73
     4
 74
     0
 42
0.000000001
 43
0.00000001
 40
0.1417391831709104
 40
0.1417391831709104
 40
0.1417391831709104
 40
0.1417391831709104
 40
0.9913197490492971
 40
0.9913197490492971
 40
0.9913197490492971
 40
0.9913197490492971
 10
112.9740953344623
 20
474.5698046285431
 30
0.0
 10
96.39654737812727
 20
439.6114498769945
 30
0.0
 10
88.06564528456455
 20
402.0151472346748
 30
0.0
 10
87.98138905377414
 20
361.7808967015841
 30
0.0
  0
LINE
  5
84
330
1F
100
AcDbEntity
  8
0
  6
Continuous
 62
     7
370
    25
100
AcDbLine
 10
87.9813890718
 20
361.7808967015
 30
0.0
 11
87.9813890718
 21
210.5825587165
 31
0.0
  0
ARC
  5
85
330
1F
100
AcDbEntity
  8
0
  6
Continuous
 62
     7
370
    25
100
AcDbCircle
 10
82.9813890718
 20
210.5825587165
 30
0.0
 40
4.999999999999943
100
AcDbArc
 50
270.0
 51
0.0
  0
LINE
  5
86
330
1F
100
AcDbEntity
  8
0
  6
Continuous
 62
     7
370
    25
100
AcDbLine
 10
82.9813890718
 20
205.5825587165
 30
0.0
 11
72.9813890718
 21
205.5825587165
 31
0.0
  0
ARC
  5
87
330
1F
100
AcDbEntity
  8
0
  6
Continuous
 62
     7
370
    25
100
AcDbCircle
 10
72.9813890718
 20
210.5825587165
 30
0.0
 40
5.0
100
AcDbArc
 50
180.0
 51
270.0
  0
LINE
  5
88
330
1F
100
AcDbEntity
  8
0
  6
Continuous
 62
     7
370
    25
100
AcDbLine
 10
67.9813890718
 20
210.5825587165
 30
0.0
 11
67.9813890718
 21
416.0470444088
 31
0.0
  0
ARC
  5
89
330
1F
100
AcDbEntity
  8
0
  6
Continuous
 62
     7
370
    25
100
AcDbCircle
 10
167.9813890718
 20
416.0470444088
 30
0.0
 40
100.0000000000001
100
AcDbArc
 50
161.2683819833
 51
180.0
  0
LINE
  5
8A
330
1F
100
AcDbEntity
  8
0
  6
Continuous
 62
     7
370
    25
100
AcDbLine
 10
73.2780683778
 20
448.1606092923
 30
0.0
 11
84.4006085157
 21
480.9611248825
 31
0.0
  0
ARC
  5
8B
330
1F
100
AcDbEntity
  8
0
  6
Continuous
 62
     7
370
    25
100
AcDbCircle
 10
82.932707045
 20
481.4588851382
 30
0.0
 40
1.550000000000006
100
AcDbArc
 50
341.2683819833
 51
147.151401412
  0
ARC
  5
8C
330
1F
100
AcDbEntity
  8
0
  6
Continuous
 62
     7
370
    25
100
AcDbCircle
 10
81.2104880612
 20
482.5708481645
 30
0.0
 40
0.5000000000000024
100
AcDbArc
 50
251.2683819833
 51
327.151401412
  0
LINE
  5
8D
330
1F
100
AcDbEntity
  8
0
  6
Continuous
 62
     7
370
    25
100
AcDbLine
 10
81.0499202368
 20
482.0973315611
 30
0.0
 11
77.0175829766
 21
483.4646830255
 31
0.0
  0
ARC
  5
8E
330
1F
100
AcDbEntity
  8
0
  6
Continuous
 62
     7
370
    25
100
AcDbCircle
 10
77.9809899231
 20
486.3057826463
 30
0.0
 40
3.000000000000033
100
AcDbArc
 50
161.2683819833
 51
251.2683819833
  0
LINE
  5
8F
330
1F
100
AcDbEntity
  8
0
  6
Continuous
 62
     7
370
    25
100
AcDbLine
 10
75.1398903023
 20
487.2691895928
 30
0.0
 11
82.8471458743
 21
509.9979865594
 31
0.0
  0
ARC
  5
90
330
1F
100
AcDbEntity
  8
0
  6
Continuous
 62
     7
370
    25
100
AcDbCircle
 10
85.6882454951
 20
509.0345796129
 30
0.0
 40
3.000000000000033
100
AcDbArc
 50
71.2683819833
 51
161.2683819833
  0
LINE
  5
91
330
1F
100
AcDbEntity
  8
0
  6
Continuous
 62
     7
370
    25
100
AcDbLine
 10
86.6516524416
 20
511.8756792337
 30
0.0
 11
91.0347821684
 21
510.3893752705
 31
0.0
  0
ARC
  5
92
330
1F
100
AcDbEntity
  8
0
  6
Continuous
 62
     7
370
    25
100
AcDbCircle
 10
90.874214344
 20
509.915858667
 30
0.0
 40
0.5000000000000161
100
AcDbArc
 50
355.3853625546
 51
71.2683819833
  0
ARC
  5
93
330
1F
100
AcDbEntity
  8
0
  6
Continuous
 62
     7
370
    25
100
AcDbCircle
 10
92.9175689766
 20
509.7509288477
 30
0.0
 40
1.549999999999996
100
AcDbArc
 50
175.3853625546
 51
341.2683819861
  0
SPLINE
  5
94
330
1F
100
AcDbEntity
  8
0
  6
Continuous
 62
     7
370
    25
100
AcDbSpline
210
0.0
220
0.0
230
1.0
 70
     8
 71
     3
 72
    11
 73
     7
 74
     0
 42
0.000000001
 43
0.00000001
 40
1.9995651844643
 40
1.9995651844643
 40
1.9995651844643
 40
1.9995651844643
 40
2.057306855788317
 40
2.212204826902814
 40
2.522000769131806
 40
2.524778536633892
 40
2.524778536633892
 40
2.524778536633892
 40
2.524778536633892
 10
94.38547044668752
 20
509.2531685923749
 30
0.0
 10
95.01295742098341
 20
510.6472414559532
 30
0.0
 10
97.46999190779528
 20
515.7149225299171
 30
0.0
 10
104.7882416988111
 20
527.4660786348651
 30
0.0
 10
113.630968216663
 20
536.2565373080954
 30
0.0
 10
120.295843617413
 20
541.069632087141
 30
0.0
 10
120.3551319161504
 20
541.1123207000728
 30
0.0
  0
ARC
  5
95
330
1F
100
AcDbEntity
  8
0
  6
Continuous
 62
     7
370
    25
100
AcDbCircle
 10
119.4506430386
 20
542.3710501668
 30
0.0
 40
1.550000000000035
100
AcDbArc
 50
305.7
 51
111.5830194287
  0
ARC
  5
96
330
1F
100
AcDbEntity
  8
0
  6
Continuous
 62
     7
370
    25
100
AcDbCircle
 10
118.6965526263
 20
544.277315534
 30
0.0
 40
0.4999999999999732
100
AcDbArc
 50
215.7
 51
291.5830194287
  0
LINE
  5
97
330
1F
100
AcDbEntity
  8
0
  6
Continuous
 62
     7
370
    25
100
AcDbLine
 10
118.2905108629
 20
543.9855449283
 30
0.0
 11
116.2996702284
 21
546.756092839
 31
0.0
  0
ARC
  5
98
330
1F
100
AcDbEntity
  8
0
  6
Continuous
 62
     7
370
    25
100
AcDbCircle
 10
118.7359208091
 20
548.5067164731
 30
0.0
 40
2.999999999999975
100
AcDbArc
 50
123.7305250962
 51
215.7
  0
SPLINE
  5
99
330
1F
100
AcDbEntity
  8
0
  6
Continuous
 62
     7
370
    25
100
AcDbSpline
210
0.0
220
0.0
230
1.0
 70
     8
 71
     3
 72
     8
 73
     4
 74
     0
 42
0.000000001
 43
0.00000001
 40
0.5304681297608931
 40
0.5304681297608931
 40
0.5304681297608931
 40
0.5304681297608931
 40
0.7484816209059887
 40
0.7484816209059887
 40
0.7484816209059887
 40
0.7484816209059887
 10
117.0700580228362
 20
551.0016916588027
 30
0.0
 10
123.7333049418891
 20
555.4506556431315
 30
0.0
 10
130.9836580468678
 20
558.9787485135226
 30
0.0
 10
138.5869492635726
 20
561.4678616548581
 30
0.0
  0
ARC
  5
9A
330
1F
100
AcDbEntity
  8
0
  6
Continuous
 62
     7
370
    25
100
AcDbCircle
 10
139.520324938
 20
558.6167548785
 30
0.0
 40
3.000000000000163
100
AcDbArc
 50
16.0
 51
108.1270555294
  0
LINE
  5
9B
330
1F
100
AcDbEntity
  8
0
  6
Continuous
 62
     7
370
    25
100
AcDbLine
 10
142.4041100258
 20
559.4436669459
 30
0.0
 11
143.3423564597
 21
556.1716127806
 31
0.0
  0
ARC
  5
9C
330
1F
100
AcDbEntity
  8
0
  6
Continuous
 62
     7
370
    25
100
AcDbCircle
 10
142.8617256117
 20
556.0337941027
 30
0.0
 40
0.5000000000000691
100
AcDbArc
 50
300.1169805714
 51
16.0
  0
ARC
  5
9D
330
1F
100
AcDbEntity
  8
0
  6
Continuous
 62
     7
370
    25
100
AcDbCircle
 10
143.8903482023
 20
554.2605384623
 30
0.0
 40
1.549999999991628
100
AcDbArc
 50
120.1169805714
 51
286.0
  0
SPLINE
  5
9E
330
1F
100
AcDbEntity
  8
0
  6
Continuous
 62
     7
370
    25
100
AcDbSpline
210
0.0
220
0.0
230
1.0
 70
     8
 71
     3
 72
     9
 73
     5
 74
     0
 42
0.000000001
 43
0.00000001
 40
2.864762530596724
 40
2.864762530596724
 40
2.864762530596724
 40
2.864762530596724
 40
2.986694682475297
 40
3.141592653589793
 40
3.141592653589793
 40
3.141592653589793
 40
3.141592653589793
 10
144.3175861038029
 20
552.7705828335872
 30
0.0
 10
147.388625800175
 20
553.6567942039043
 30
0.0
 10
154.4831398035725
 20
555.2361927465244
 30
0.0
 10
161.7387115818964
 20
555.8078729525937
 30
0.0
 10
165.7920829451636
 20
555.8078729525937
 30
0.0
  0
SPLINE
  5
9F
330
1F
100
AcDbEntity
  8
0
  6
Continuous
 62
     7
370
    25
100
AcDbSpline
210
0.0
220
0.0
230
1.0
 70
     8
 71
     3
 72
     9
 73
     5
 74
     0
 42
0.000000001
 43
0.00000001
 40
2.864762530596631
 40
2.864762530596631
 40
2.864762530596631
 40
2.864762530596631
 40
2.986694682475297
 40
3.141592653589793
 40
3.141592653589793
 40
3.141592653589793
 40
3.141592653589793
 10
187.2665797865312
 20
552.7705828335853
 30
0.0
 10
184.1955400901568
 20
553.6567942039032
 30
0.0
 10
177.101026086757
 20
555.2361927465242
 30
0.0
 10
169.8454543084307
 20
555.8078729525937
 30
0.0
 10
165.7920829451635
 20
555.8078729525937
 30
0.0
  0
ARC
  5
A0
330
1F
100
AcDbEntity
  8
0
  6
Continuous
 62
     7
370
    25
100
AcDbCircle
 10
187.693817688
 20
554.2605384623
 30
0.0
 40
1.550000000000521
100
AcDbArc
 50
253.9999999999
 51
59.8830194286
  0
ARC
  5
A1
330
1F
100
AcDbEntity
  8
0
  6
Continuous
 62
     7
370
    25
100
AcDbCircle
 10
188.7224402786
 20
556.0337941027
 30
0.0
 40
0.5000000000000152
100
AcDbArc
 50
163.9999999999
 51
239.8830194286
  0
LINE
  5
A2
330
1F
100
AcDbEntity
  8
0
  6
Continuous
 62
     7
370
    25
100
AcDbLine
 10
188.2418094307
 20
556.1716127806
 30
0.0
 11
189.1800558645
 21
559.4436669459
 31
0.0
  0
ARC
  5
A3
330
1F
100
AcDbEntity
  8
0
  6
Continuous
 62
     7
370
    25
100
AcDbCircle
 10
192.0638409523
 20
558.6167548785
 30
0.0
 40
2.999999999999998
100
AcDbArc
 50
71.8729444705
 51
163.9999999999
  0
SPLINE
  5
A4
330
1F
100
AcDbEntity
  8
0
  6
Continuous
 62
     7
370
    25
100
AcDbSpline
210
0.0
220
0.0
230
1.0
 70
     8
 71
     3
 72
     8
 73
     4
 74
     0
 42
0.000000001
 43
0.00000001
 40
0.2515183790776871
 40
0.2515183790776871
 40
0.2515183790776871
 40
0.2515183790776871
 40
0.4695318702214597
 40
0.4695318702214597
 40
0.4695318702214597
 40
0.4695318702214597
 10
192.9972166250466
 20
561.4678616554172
 30
0.0
 10
200.6005078417581
 20
558.9787485142524
 30
0.0
 10
207.8508609467654
 20
555.4506556440357
 30
0.0
 10
214.5141078658728
 20
551.001691659883
 30
0.0
  0
ARC
  5
A5
330
1F
100
AcDbEntity
  8
0
  6
Continuous
 62
     7
370
    25
100
AcDbCircle
 10
212.8482450813
 20
548.5067164731
 30
0.0
 40
2.999999999999975
100
AcDbArc
 50
324.3
 51
56.2694749038
  0
LINE
  5
A6
330
1F
100
AcDbEntity
  8
0
  6
Continuous
 62
     7
370
    25
100
AcDbLine
 10
215.2844956619
 20
546.756092839
 30
0.0
 11
213.2936550274
 21
543.9855449283
 31
0.0
  0
ARC
  5
A7
330
1F
100
AcDbEntity
  8
0
  6
Continuous
 62
     7
370
    25
100
AcDbCircle
 10
212.887613264
 20
544.277315534
 30
0.0
 40
0.5000000000001121
100
AcDbArc
 50
248.4169805714
 51
324.3
  0
ARC
  5
A8
330
1F
100
AcDbEntity
  8
0
  6
Continuous
 62
     7
370
    25
100
AcDbCircle
 10
212.1335228518
 20
542.3710501668
 30
0.0
 40
1.549999999999896
100
AcDbArc
 50
68.4169805714
 51
234.3000000002
  0
SPLINE
  5
A9
330
1F
100
AcDbEntity
  8
0
  6
Continuous
 62
     7
370
    25
100
AcDbSpline
210
0.0
220
0.0
230
1.0
 70
     8
 71
     3
 72
    11
 73
     7
 74
     0
 42
0.000000001
 43
0.00000001
 40
1.999565184463439
 40
1.999565184463439
 40
1.999565184463439
 40
1.999565184463439
 40
2.057306855788317
 40
2.212204826902814
 40
2.522000769131806
 40
2.524778536633757
 40
2.524778536633757
 40
2.524778536633757
 40
2.524778536633757
 10
237.1986954436676
 20
509.2531685923125
 30
0.0
 10
236.5712084693636
 20
510.6472414559123
 30
0.0
 10
234.1141739825439
 20
515.7149225298978
 30
0.0
 10
226.795924191516
 20
527.4660786348651
 30
0.0
 10
217.9531976736666
 20
536.2565373080929
 30
0.0
 10
211.2883222729198
 20
541.0696320871368
 30
0.0
 10
211.2290339741853
 20
541.1123207000668
 30
0.0
  0
ARC
  5
AA
330
1F
100
AcDbEntity
  8
0
  6
Continuous
 62
     7
370
    25
100
AcDbCircle
 10
238.6665969115
 20
509.7509288543
 30
0.0
 40
1.550000000064997
100
AcDbArc
 50
198.731618276
 51
4.6146372436
  0
ARC
  5
AB
330
1F
100
AcDbEntity
  8
0
  6
Continuous
 62
     7
370
    25
100
AcDbCircle
 10
240.7099515447
 20
509.9158586665
 30
0.0
 40
0.500000000000018
100
AcDbArc
 50
108.7316180167
 51
184.6146372436
  0
LINE
  5
AC
330
1F
100
AcDbEntity
  8
0
  6
Continuous
 62
     7
370
    25
100
AcDbLine
 10
240.5493837203
 20
510.38937527
 30
0.0
 11
244.9325134487
 21
511.8756792337
 31
0.0
  0
ARC
  5
AD
330
1F
100
AcDbEntity
  8
0
  6
Continuous
 62
     7
370
    25
100
AcDbCircle
 10
245.8959203952
 20
509.0345796129
 30
0.0
 40
3.000000000000033
100
AcDbArc
 50
18.7316180167
 51
108.7316180167
  0
LINE
  5
AE
330
1F
100
AcDbEntity
  8
0
  6
Continuous
 62
     7
370
    25
100
AcDbLine
 10
248.737020016
 20
509.9979865594
 30
0.0
 11
256.444275588
 21
487.2691895928
 31
0.0
  0
ARC
  5
AF
330
1F
100
AcDbEntity
  8
0
  6
Continuous
 62
     7
370
    25
100
AcDbCircle
 10
253.6031759672
 20
486.3057826463
 30
0.0
 40
3.000000000000078
100
AcDbArc
 50
288.7316180167
 51
18.7316180167
  0
LINE
  5
B0
330
1F
100
AcDbEntity
  8
0
  6
Continuous
 62
     7
370
    25
100
AcDbLine
 10
254.5665829137
 20
483.4646830255
 30
0.0
 11
250.5342456536
 21
482.0973315611
 31
0.0
  0
ARC
  5
B1
330
1F
100
AcDbEntity
  8
0
  6
Continuous
 62
     7
370
    25
100
AcDbCircle
 10
250.3736778291
 20
482.5708481645
 30
0.0
 40
0.4999999999999714
100
AcDbArc
 50
212.848598588
 51
288.7316180167
  0
ARC
  5
B2
330
1F
100
AcDbEntity
  8
0
  6
Continuous
 62
     7
370
    25
100
AcDbCircle
 10
248.6514588454
 20
481.4588851382
 30
0.0
 40
1.549999999999992
100
AcDbArc
 50
32.848598588
 51
198.7316180167
  0
ARC
  5
B3
330
1F
100
AcDbEntity
  8
0
  6
Continuous
 62
     7
370
    25
100
AcDbCircle
 10
99.2474623599
 20
485.3196368555
 30
0.0
 40
1.550000000000062
100
AcDbArc
 50
160.5609831156
 51
340.5609831156
  0
LINE
  5
B4
330
1F
100
AcDbEntity
  8
0
  6
Continuous
 62
     7
370
    25
100
AcDbLine
 10
104.6694665744
 20
496.0254469742
 30
0.0
 11
100.7091065419
 21
484.8037916412
 31
0.0
  0
ARC
  5
B5
330
1F
100
AcDbEntity
  8
0
  6
Continuous
 62
     7
370
    25
100
AcDbCircle
 10
103.2078223923
 20
496.5412921885
 30
0.0
 40
1.550000000000048
100
AcDbArc
 50
340.5609831156
 51
160.5609831156
  0
LINE
  5
B6
330
1F
100
AcDbEntity
  8
0
  6
Continuous
 62
     7
370
    25
100
AcDbLine
 10
97.7858181778
 20
485.8354820698
 30
0.0
 11
101.7461782103
 21
497.0571374028
 31
0.0
  0
ARC
  5
B7
330
1F
100
AcDbEntity
  8
0
  6
Continuous
 62
     7
370
    25
100
AcDbCircle
 10
232.3367035305
 20
485.3196368555
 30
0.0
 40
1.550000000000035
100
AcDbArc
 50
199.4390168844
 51
19.4390168844
  0
LINE
  5
B8
330
1F
100
AcDbEntity
  8
0
  6
Continuous
 62
     7
370
    25
100
AcDbLine
 10
229.83798768
 20
497.0571374028
 30
0.0
 11
233.7983477125
 21
485.8354820698
 31
0.0
  0
ARC
  5
B9
330
1F
100
AcDbEntity
  8
0
  6
Continuous
 62
     7
370
    25
100
AcDbCircle
 10
228.376343498
 20
496.5412921885
 30
0.0
 40
1.550000000000062
100
AcDbArc
 50
19.4390168844
 51
199.4390168844
  0
LINE
  5
BA
330
1F
100
AcDbEntity
  8
0
  6
Continuous
 62
     7
370
    25
100
AcDbLine
 10
230.8750593484
 20
484.8037916412
 30
0.0
 11
226.914699316
 21
496.0254469742
 31
0.0
  0
ARC
  5
BB
330
1F
100
AcDbEntity
  8
0
  6
Continuous
 62
     7
370
    25
100
AcDbCircle
 10
165.7920829452
 20
531.5625725927
 30
0.0
 40
9.000000000000043
100
AcDbArc
 50
74.221755117
 51
105.778244883
  0
LINE
  5
BC
330
1F
100
AcDbEntity
  8
0
  6
Continuous
 62
     7
370
    25
100
AcDbLine
 10
163.3448490722
 20
540.2234643696
 30
0.0
 11
131.4976483873
 21
531.2246741432
 31
0.0
  0
ARC
  5
BD
330
1F
100
AcDbEntity
  8
0
  6
Continuous
 62
     7
370
    25
100
AcDbCircle
 10
132.3133930116
 20
528.3377102176
 30
0.0
 40
3.000000000000082
100
AcDbArc
 50
105.778244883
 51
192.4738228495
  0
LINE
  5
BE
330
1F
100
AcDbEntity
  8
0
  6
Continuous
 62
     7
370
    25
100
AcDbLine
 10
129.3842086368
 20
527.6897295864
 30
0.0
 11
130.6049781691
 21
522.171263652
 31
0.0
  0
ARC
  5
BF
330
1F
100
AcDbEntity
  8
0
  6
Continuous
 62
     7
370
    25
100
AcDbCircle
 10
135.4869521271
 20
523.2512313706
 30
0.0
 40
4.999999999999983
100
AcDbArc
 50
192.4738228495
 51
285.778244883
  0
LINE
  5
C0
330
1F
100
AcDbEntity
  8
0
  6
Continuous
 62
     7
370
    25
100
AcDbLine
 10
136.8465265009
 20
518.4396248279
 30
0.0
 11
160.081870575
 21
525.0050366275
 31
0.0
  0
ARC
  5
C1
330
1F
100
AcDbEntity
  8
0
  6
Continuous
 62
     7
370
    25
100
AcDbCircle
 10
165.7920829452
 20
504.7962891481
 30
0.0
 40
20.99999999999994
100
AcDbArc
 50
74.221755117
 51
105.778244883
  0
LINE
  5
C2
330
1F
100
AcDbEntity
  8
0
  6
Continuous
 62
     7
370
    25
100
AcDbLine
 10
171.5022953153
 20
525.0050366275
 30
0.0
 11
194.7376393894
 21
518.4396248279
 31
0.0
  0
ARC
  5
C3
330
1F
100
AcDbEntity
  8
0
  6
Continuous
 62
     7
370
    25
100
AcDbCircle
 10
196.0972137632
 20
523.2512313706
 30
0.0
 40
5.000000000000066
100
AcDbArc
 50
254.221755117
 51
347.5261771505
  0
LINE
  5
C4
330
1F
100
AcDbEntity
  8
0
  6
Continuous
 62
     7
370
    25
100
AcDbLine
 10
200.9791877212
 20
522.171263652
 30
0.0
 11
202.1999572535
 21
527.6897295864
 31
0.0
  0
ARC
  5
C5
330
1F
100
AcDbEntity
  8
0
  6
Continuous
 62
     7
370
    25
100
AcDbCircle
 10
199.2707728787
 20
528.3377102176
 30
0.0
 40
3.000000000000008
100
AcDbArc
 50
347.5261771505
 51
74.221755117
  0
LINE
  5
C6
330
1F
100
AcDbEntity
  8
0
  6
Continuous
 62
     7
370
    25
100
AcDbLine
 10
200.086517503
 20
531.2246741432
 30
0.0
 11
168.2393168181
 21
540.2234643696
 31
0.0
  0
ARC
  5
C7
330
1F
100
AcDbEntity
  8
0
  6
Continuous
 62
     7
370
    25
100
AcDbCircle
 10
31.0988935995
 20
124.3579439263
 30
0.0
 40
1.000000000000075
100
AcDbArc
 50
40.0002803571
 51
106.9115079201
  0
ARC
  5
C8
330
1F
100
AcDbEntity
  8
0
  6
Continuous
 62
     7
370
    25
100
AcDbCircle
 10
33.052298909
 20
125.9970618893
 30
0.0
 40
1.550000000000013
100
AcDbArc
 50
220.0002803571
 51
16.9115079271
  0
ARC
  5
C9
330
1F
100
AcDbEntity
  8
0
  6
Continuous
 62
     7
370
    25
100
AcDbCircle
 10
290.1926769053
 20
197.1717099371
 30
0.0
 40
265.2594210881275
100
AcDbArc
 50
180.0
 51
195.4633018072
  0
LINE
  5
CA
330
1F
100
AcDbEntity
  8
0
  6
Continuous
 62
     7
370
    25
100
AcDbLine
 10
24.9332558172
 20
197.1717099371
 30
0.0
 11
24.9332558172
 21
406.4317426953
 31
0.0
  0
ARC
  5
CB
330
1F
100
AcDbEntity
  8
0
  6
Continuous
 62
     7
370
    25
100
AcDbCircle
 10
29.9332558172
 20
406.4317426953
 30
0.0
 40
5.000000000000004
100
AcDbArc
 50
90.0
 51
180.0
  0
LINE
  5
CC
330
1F
100
AcDbEntity
  8
0
  6
Continuous
 62
     7
370
    25
100
AcDbLine
 10
29.9332558172
 20
411.4317426953
 30
0.0
 11
39.9332558172
 21
411.4317426953
 31
0.0
  0
ARC
  5
CD
330
1F
100
AcDbEntity
  8
0
  6
Continuous
 62
     7
370
    25
100
AcDbCircle
 10
39.9332558172
 20
406.4317426953
 30
0.0
 40
5.000000000000007
100
AcDbArc
 50
360.0
 51
90.0
  0
LINE
  5
CE
330
1F
100
AcDbEntity
  8
0
  6
Continuous
 62
     7
370
    25
100
AcDbLine
 10
44.9332558172
 20
406.4317426953
 30
0.0
 11
44.9332558172
 21
194.8722603751
 31
0.0
  0
ARC
  5
CF
330
1F
100
AcDbEntity
  8
0
  6
Continuous
 62
     7
370
    25
100
AcDbCircle
 10
94.9332558172
 20
194.8722603751
 30
0.0
 40
50.00000000000001
100
AcDbArc
 50
180.0
 51
204.816628394
  0
ARC
  5
D0
330
1F
100
AcDbEntity
  8
0
  6
Continuous
 62
     7
370
    25
100
AcDbCircle
 10
114.9332558172
 20
204.1206023842
 30
0.0
 40
72.0347868135108
100
AcDbArc
 50
204.816628394
 51
335.183371606
  0
ARC
  5
D1
330
1F
100
AcDbEntity
  8
0
  6
Continuous
 62
     7
370
    25
100
AcDbCircle
 10
134.9332558172
 20
194.8722603751
 30
0.0
 40
50.0
100
AcDbArc
 50
335.183371606
 51
0.0
  0
LINE
  5
D2
330
1F
100
AcDbEntity
  8
0
  6
Continuous
 62
     7
370
    25
100
AcDbLine
 10
184.9332558172
 20
194.8722603751
 30
0.0
 11
184.9332558172
 21
406.4317426953
 31
0.0
  0
ARC
  5
D3
330
1F
100
AcDbEntity
  8
0
  6
Continuous
 62
     7
370
    25
100
AcDbCircle
 10
189.9332558172
 20
406.4317426953
 30
0.0
 40
5.000000000000028
100
AcDbArc
 50
90.0
 51
180.0
  0
LINE
  5
D4
330
1F
100
AcDbEntity
  8
0
  6
Continuous
 62
     7
370
    25
100
AcDbLine
 10
189.9332558172
 20
411.4317426953
 30
0.0
 11
199.9332558172
 21
411.4317426953
 31
0.0
  0
ARC
  5
D5
330
1F
100
AcDbEntity
  8
0
  6
Continuous
 62
     7
370
    25
100
AcDbCircle
 10
199.9332558172
 20
406.4317426953
 30
0.0
 40
5.0
100
AcDbArc
 50
0.0
 51
90.0
  0
LINE
  5
D6
330
1F
100
AcDbEntity
  8
0
  6
Continuous
 62
     7
370
    25
100
AcDbLine
 10
204.9332558172
 20
406.4317426953
 30
0.0
 11
204.9332558172
 21
197.1717099371
 31
0.0
  0
ARC
  5
D7
330
1F
100
AcDbEntity
  8
0
  6
Continuous
 62
     7
370
    25
100
AcDbCircle
 10
-60.3261652709
 20
197.1717099371
 30
0.0
 40
265.2594210881228
100
AcDbArc
 50
344.5366981927
 51
0.0
  0
ARC
  5
D8
330
1F
100
AcDbEntity
  8
0
  6
Continuous
 62
     7
370
    25
100
AcDbCircle
 10
196.8142127254
 20
125.9970618893
 30
0.0
 40
1.550000000000005
100
AcDbArc
 50
163.0884920799
 51
319.9997196429
  0
ARC
  5
D9
330
1F
100
AcDbEntity
  8
0
  6
Continuous
 62
     7
370
    25
100
AcDbCircle
 10
198.7676180349
 20
124.3579439263
 30
0.0
 40
1.000000000000325
100
AcDbArc
 50
73.0884920799
 51
139.9997196429
  0
LINE
  5
DA
330
1F
100
AcDbEntity
  8
0
  6
Continuous
 62
     7
370
    25
100
AcDbLine
 10
199.0585123997
 20
125.3146991032
 30
0.0
 11
202.57136318
 21
124.2466426965
 31
0.0
  0
ARC
  5
DB
330
1F
100
AcDbEntity
  8
0
  6
Continuous
 62
     7
370
    25
100
AcDbCircle
 10
201.6986800856
 20
121.3763771658
 30
0.0
 40
3.000000000000199
100
AcDbArc
 50
341.6031360372
 51
73.0884920799
  0
LINE
  5
DC
330
1F
100
AcDbEntity
  8
0
  6
Continuous
 62
     7
370
    25
100
AcDbLine
 10
204.5453599467
 20
120.4295858642
 30
0.0
 11
196.5403951153
 21
96.3613755463
 31
0.0
  0
ARC
  5
DD
330
1F
100
AcDbEntity
  8
0
  6
Continuous
 62
     7
370
    25
100
AcDbCircle
 10
193.6937152543
 20
97.3081668479
 30
0.0
 40
3.000000000000008
100
AcDbArc
 50
253.0884920799
 51
341.6031360372
  0
LINE
  5
DE
330
1F
100
AcDbEntity
  8
0
  6
Continuous
 62
     7
370
    25
100
AcDbLine
 10
192.8210321599
 20
94.4379013172
 30
0.0
 11
189.9372333574
 21
95.3146991032
 31
0.0
  0
ARC
  5
DF
330
1F
100
AcDbEntity
  8
0
  6
Continuous
 62
     7
370
    25
100
AcDbCircle
 10
190.2281277222
 20
96.2714542801
 30
0.0
 40
1.000000000000003
100
AcDbArc
 50
186.1772645169
 51
253.0884920799
  0
ARC
  5
E0
330
1F
100
AcDbEntity
  8
0
  6
Continuous
 62
     7
370
    25
100
AcDbCircle
 10
187.6929336831
 20
95.9970618893
 30
0.0
 40
1.549999999999994
100
AcDbArc
 50
6.1772645169
 51
163.0884920799
  0
SPLINE
  5
E1
330
1F
100
AcDbEntity
  8
0
  6
Continuous
 62
     7
370
    25
100
AcDbSpline
210
0.0
220
0.0
230
1.0
 70
     8
 71
     3
 72
    34
 73
    30
 74
     0
 42
0.000000001
 43
0.00000001
 40
0.0
 40
0.0
 40
0.0
 40
0.0
 40
0.1249999999999989
 40
0.1249999999999989
 40
0.1562499999999987
 40
0.1562499999999987
 40
0.1874999999999984
 40
0.1874999999999984
 40
0.2499999999999986
 40
0.2499999999999986
 40
0.3749999999999987
 40
0.3749999999999987
 40
0.4999999999999988
 40
0.4999999999999988
 40
0.5312499999999986
 40
0.5312499999999986
 40
0.5624999999999984
 40
0.5624999999999984
 40
0.6249999999999984
 40
0.6249999999999984
 40
0.7499999999999986
 40
0.7499999999999986
 40
0.8124999999999988
 40
0.8124999999999988
 40
0.8437499999999989
 40
0.8437499999999989
 40
0.8749999999999991
 40
0.8749999999999991
 40
1.0
 40
1.0
 40
1.0
 40
1.0
 10
186.2099631588883
 20
96.44794815475805
 30
0.0
 10
184.9607966725394
 20
93.5410401895315
 30
0.0
 10
183.5476102350282
 20
90.71262438355524
 30
0.0
 10
181.571749174478
 20
87.27730299997391
 30
0.0
 10
181.1660868893827
 20
86.59525877401056
 30
0.0
 10
180.3335466977428
 20
85.24132311097057
 30
0.0
 10
179.9060499729545
 20
84.56850330594814
 30
0.0
 10
178.5963283483939
 20
82.57311655564367
 30
0.0
 10
177.6878491673544
 20
81.2747958084116
 30
0.0
 10
174.8579383831377
 20
77.47426990262355
 30
0.0
 10
172.83279856063
 20
75.06580955502778
 30
0.0
 10
168.5080633530781
 20
70.49697705374273
 30
0.0
 10
166.208519889028
 20
68.33655796718926
 30
0.0
 10
163.154134601551
 20
65.7987014204012
 30
0.0
 10
162.5331543686137
 20
65.29848674050473
 30
0.0
 10
161.2786658116968
 20
64.31934266243725
 30
0.0
 10
160.6454357802332
 20
63.84056763650961
 30
0.0
 10
158.727892668025
 20
62.43644556930686
 30
0.0
 10
157.4257730612094
 20
61.54321767748508
 30
0.0
 10
153.4495582964198
 20
58.98953912551111
 30
0.0
 10
150.7059401881717
 20
57.45449293905403
 30
0.0
 10
146.4508195461399
 20
55.40390070042164
 30
0.0
 10
145.0090810520527
 20
54.76251530100204
 30
0.0
 10
142.8105813738794
 20
53.86517854925454
 30
0.0
 10
142.0717604794772
 20
53.57686676663903
 30
0.0
 10
140.5819303050374
 20
53.02222843189316
 30
0.0
 10
139.8297697866127
 20
52.75554421850517
 30
0.0
 10
136.0623676888706
 20
51.48624548554417
 30
0.0
 10
133.0143053893176
 20
50.6697409709527
 30
0.0
 10
129.9332558171789
 20
50.04545046377998
 30
0.0
  0
ARC
  5
E2
330
1F
100
AcDbEntity
  8
0
  6
Continuous
 62
     7
370
    25
100
AcDbCircle
 10
129.9332558172
 20
48.4954504638
 30
0.0
 40
1.550000000000015
100
AcDbArc
 50
90.0
 51
246.911227563
  0
ARC
  5
E3
330
1F
100
AcDbEntity
  8
0
  6
Continuous
 62
     7
370
    25
100
AcDbCircle
 10
128.9332558172
 20
46.1497096426
 30
0.0
 40
1.0
100
AcDbArc
 50
0.0
 51
66.911227563
  0
LINE
  5
E4
330
1F
100
AcDbEntity
  8
0
  6
Continuous
 62
     7
370
    25
100
AcDbLine
 10
129.9332558172
 20
46.1497096426
 30
0.0
 11
129.9332558172
 21
42.9325550325
 31
0.0
  0
ARC
  5
E5
330
1F
100
AcDbEntity
  8
0
  6
Continuous
 62
     7
370
    25
100
AcDbCircle
 10
126.9332558172
 20
42.9325550325
 30
0.0
 40
3.0
100
AcDbArc
 50
270.0
 51
0.0
  0
LINE
  5
E6
330
1F
100
AcDbEntity
  8
0
  6
Continuous
 62
     7
370
    25
100
AcDbLine
 10
126.9332558172
 20
39.9325550325
 30
0.0
 11
102.9332558172
 21
39.9325550325
 31
0.0
  0
ARC
  5
E7
330
1F
100
AcDbEntity
  8
0
  6
Continuous
 62
     7
370
    25
100
AcDbCircle
 10
102.9332558172
 20
42.9325550325
 30
0.0
 40
3.0
100
AcDbArc
 50
180.0
 51
270.0
  0
LINE
  5
E8
330
1F
100
AcDbEntity
  8
0
  6
Continuous
 62
     7
370
    25
100
AcDbLine
 10
99.9332558172
 20
42.9325550325
 30
0.0
 11
99.9332558172
 21
46.1497096426
 31
0.0
  0
ARC
  5
E9
330
1F
100
AcDbEntity
  8
0
  6
Continuous
 62
     7
370
    25
100
AcDbCircle
 10
100.9332558172
 20
46.1497096426
 30
0.0
 40
1.000000000000004
100
AcDbArc
 50
113.088772437
 51
180.0
  0
ARC
  5
EA
330
1F
100
AcDbEntity
  8
0
  6
Continuous
 62
     7
370
    25
100
AcDbCircle
 10
99.9332558172
 20
48.4954504638
 30
0.0
 40
1.550000000000015
100
AcDbArc
 50
293.088772437
 51
90.0
  0
SPLINE
  5
EB
330
1F
100
AcDbEntity
  8
0
  6
Continuous
 62
     7
370
    25
100
AcDbSpline
210
0.0
220
0.0
230
1.0
 70
     8
 71
     3
 72
    34
 73
    30
 74
     0
 42
0.000000001
 43
0.00000001
 40
0.0
 40
0.0
 40
0.0
 40
0.0
 40
0.1250000000000009
 40
0.1250000000000009
 40
0.1562500000000011
 40
0.1562500000000011
 40
0.1875000000000012
 40
0.1875000000000012
 40
0.2500000000000014
 40
0.2500000000000014
 40
0.3750000000000016
 40
0.3750000000000016
 40
0.4375000000000016
 40
0.4375000000000016
 40
0.4687500000000014
 40
0.4687500000000014
 40
0.5000000000000012
 40
0.5000000000000012
 40
0.6250000000000013
 40
0.6250000000000013
 40
0.7500000000000014
 40
0.7500000000000014
 40
0.8125000000000016
 40
0.8125000000000016
 40
0.8437500000000013
 40
0.8437500000000013
 40
0.8750000000000011
 40
0.8750000000000011
 40
1.0
 40
1.0
 40
1.0
 40
1.0
 10
99.93325581717886
 20
50.04545046377998
 30
0.0
 10
96.85220624504015
 20
50.6697409709527
 30
0.0
 10
93.8041439454872
 20
51.48624548554417
 30
0.0
 10
90.03674184774505
 20
52.75554421850517
 30
0.0
 10
89.2845813293204
 20
53.02222843189316
 30
0.0
 10
87.79475115488057
 20
53.57686676663903
 30
0.0
 10
87.05593026047833
 20
53.86517854925454
 30
0.0
 10
84.85743058230508
 20
54.76251530100204
 30
0.0
 10
83.41569208821792
 20
55.40390070042167
 30
0.0
 10
79.16057144618607
 20
57.45449293905406
 30
0.0
 10
76.41695333793797
 20
58.98953912551111
 30
0.0
 10
72.44073857314834
 20
61.54321767748511
 30
0.0
 10
71.1386189663327
 20
62.43644556930688
 30
0.0
 10
69.22107585412459
 20
63.84056763650964
 30
0.0
 10
68.58784582266095
 20
64.31934266243725
 30
0.0
 10
67.33335726574406
 20
65.29848674050473
 30
0.0
 10
66.71237703280671
 20
65.7987014204012
 30
0.0
 10
63.65799174532977
 20
68.3365579671893
 30
0.0
 10
61.35844828127965
 20
70.49697705374273
 30
0.0
 10
57.03371307372779
 20
75.06580955502781
 30
0.0
 10
55.00857325122011
 20
77.47426990262355
 30
0.0
 10
52.17866246700339
 20
81.2747958084116
 30
0.0
 10
51.27018328596386
 20
82.57311655564367
 30
0.0
 10
49.96046166140332
 20
84.56850330594814
 30
0.0
 10
49.53296493661502
 20
85.24132311097057
 30
0.0
 10
48.7004247449751
 20
86.59525877401059
 30
0.0
 10
48.29476245987975
 20
87.27730299997394
 30
0.0
 10
46.31890139932955
 20
90.71262438355527
 30
0.0
 10
44.90571496181839
 20
93.54104018953151
 30
0.0
 10
43.65654847546943
 20
96.44794815475807
 30
0.0
  0
ARC
  5
EC
330
1F
100
AcDbEntity
  8
0
  6
Continuous
 62
     7
370
    25
100
AcDbCircle
 10
42.1735779513
 20
95.9970618893
 30
0.0
 40
1.550000000000774
100
AcDbArc
 50
16.9115079201
 51
173.8227354831
  0
ARC
  5
ED
330
1F
100
AcDbEntity
  8
0
  6
Continuous
 62
     7
370
    25
100
AcDbCircle
 10
39.6383839122
 20
96.2714542801
 30
0.0
 40
0.9999999999999931
100
AcDbArc
 50
286.9115079201
 51
353.8227354831
  0
LINE
  5
EE
330
1F
100
AcDbEntity
  8
0
  6
Continuous
 62
     7
370
    25
100
AcDbLine
 10
39.929278277
 20
95.3146991032
 30
0.0
 11
37.0454794744
 21
94.4379013172
 31
0.0
  0
ARC
  5
EF
330
1F
100
AcDbEntity
  8
0
  6
Continuous
 62
     7
370
    25
100
AcDbCircle
 10
36.1727963801
 20
97.3081668479
 30
0.0
 40
3.000000000000008
100
AcDbArc
 50
198.3968639628
 51
286.9115079201
  0
LINE
  5
F0
330
1F
100
AcDbEntity
  8
0
  6
Continuous
 62
     7
370
    25
100
AcDbLine
 10
33.326116519
 20
96.3613755463
 30
0.0
 11
25.3211516877
 21
120.4295858642
 31
0.0
  0
ARC
  5
F1
330
1F
100
AcDbEntity
  8
0
  6
Continuous
 62
     7
370
    25
100
AcDbCircle
 10
28.1678315487
 20
121.3763771658
 30
0.0
 40
3.000000000000145
100
AcDbArc
 50
106.9115079201
 51
198.3968639628
  0
LINE
  5
F2
330
1F
100
AcDbEntity
  8
0
  6
Continuous
 62
     7
370
    25
100
AcDbLine
 10
27.2951484543
 20
124.2466426965
 30
0.0
 11
30.8079992347
 21
125.3146991032
 31
0.0
  0
ARC
  5
F3
330
1F
100
AcDbEntity
  8
0
  6
Continuous
 62
     7
370
    25
100
AcDbCircle
 10
50.3291201309
 20
121.0822601002
 30
0.0
 40
1.550000000000115
100
AcDbArc
 50
16.9115079201
 51
196.9115079201
  0
LINE
  5
F4
330
1F
100
AcDbEntity
  8
0
  6
Continuous
 62
     7
370
    25
100
AcDbLine
 10
48.8461496067
 20
120.6313738348
 30
0.0
 11
52.3077925477
 21
109.2459872297
 31
0.0
  0
ARC
  5
F5
330
1F
100
AcDbEntity
  8
0
  6
Continuous
 62
     7
370
    25
100
AcDbCircle
 10
53.7907630719
 20
109.6968734951
 30
0.0
 40
1.550000000000127
100
AcDbArc
 50
196.9115079201
 51
16.9115079201
  0
LINE
  5
F6
330
1F
100
AcDbEntity
  8
0
  6
Continuous
 62
     7
370
    25
100
AcDbLine
 10
55.2737335961
 20
110.1477597605
 30
0.0
 11
51.8120906551
 21
121.5331463657
 31
0.0
  0
ARC
  5
F7
330
1F
100
AcDbEntity
  8
0
  6
Continuous
 62
     7
370
    25
100
AcDbCircle
 10
179.5373915035
 20
121.0822601002
 30
0.0
 40
1.550000000000135
100
AcDbArc
 50
343.0884920799
 51
163.0884920799
  0
LINE
  5
F8
330
1F
100
AcDbEntity
  8
0
  6
Continuous
 62
     7
370
    25
100
AcDbLine
 10
178.0544209793
 20
121.5331463657
 30
0.0
 11
174.5927780383
 21
110.1477597605
 31
0.0
  0
ARC
  5
F9
330
1F
100
AcDbEntity
  8
0
  6
Continuous
 62
     7
370
    25
100
AcDbCircle
 10
176.0757485625
 20
109.6968734951
 30
0.0
 40
1.550000000000144
100
AcDbArc
 50
163.0884920799
 51
343.0884920799
  0
LINE
  5
FA
330
1F
100
AcDbEntity
  8
0
  6
Continuous
 62
     7
370
    25
100
AcDbLine
 10
177.5587190867
 20
109.2459872297
 30
0.0
 11
181.0203620277
 21
120.6313738348
 31
0.0
  0
ARC
  5
FB
330
1F
100
AcDbEntity
  8
0
  6
Continuous
 62
     7
370
    25
100
AcDbCircle
 10
133.6424072378
 20
444.7440696641
 30
0.0
 40
1.000000000000007
100
AcDbArc
 50
23.088772437
 51
90.0
  0
ARC
  5
FC
330
1F
100
AcDbEntity
  8
0
  6
Continuous
 62
     7
370
    25
100
AcDbCircle
 10
135.988148059
 20
445.7440696641
 30
0.0
 40
1.550000000000011
100
AcDbArc
 50
203.088772437
 51
0.0
  0
LINE
  5
FD
330
1F
100
AcDbEntity
  8
0
  6
Continuous
 62
     7
370
    25
100
AcDbLine
 10
137.538148059
 20
445.7440696641
 30
0.0
 11
137.538148059
 21
472.7440696641
 31
0.0
  0
LINE
  5
FE
330
1F
100
AcDbEntity
  8
0
  6
Continuous
 62
     7
370
    25
100
AcDbLine
 10
137.538148059
 20
472.7440696641
 30
0.0
 11
191.5136197897
 21
472.7440696641
 31
0.0
  0
LINE
  5
FF
330
1F
100
AcDbEntity
  8
0
  6
Continuous
 62
     7
370
    25
100
AcDbLine
 10
191.5136197897
 20
472.7440696641
 30
0.0
 11
191.5136197897
 21
463.7440696641
 31
0.0
  0
LINE
  5
100
330
1F
100
AcDbEntity
  8
0
  6
Continuous
 62
     7
370
    25
100
AcDbLine
 10
191.5136197897
 20
463.7440696641
 30
0.0
 11
173.6864414453
 21
441.6383685169
 31
0.0
  0
ARC
  5
101
330
1F
100
AcDbEntity
  8
0
  6
Continuous
 62
     7
370
    25
100
AcDbCircle
 10
204.8229630243
 20
416.5282704694
 30
0.0
 40
40.00000000000001
100
AcDbArc
 50
141.1155035663
 51
173.0
  0
LINE
  5
102
330
1F
100
AcDbEntity
  8
0
  6
Continuous
 62
     7
370
    25
100
AcDbLine
 10
165.1211169586
 20
421.4030442056
 30
0.0
 11
160.9399497043
 21
387.3501696131
 31
0.0
  0
ARC
  5
103
330
1F
100
AcDbEntity
  8
0
  6
Continuous
 62
     7
370
    25
100
AcDbCircle
 10
215.5299880446
 20
380.6473557259
 30
0.0
 40
55.00000000000001
100
AcDbArc
 50
173.0
 51
178.8421855388
  0
LINE
  5
104
330
1F
100
AcDbEntity
  8
0
  6
Continuous
 62
     7
370
    25
100
AcDbLine
 10
137.538148059
 20
327.7440696641
 30
0.0
 11
137.538148059
 21
354.7440696641
 31
0.0
  0
ARC
  5
105
330
1F
100
AcDbEntity
  8
0
  6
Continuous
 62
     7
370
    25
100
AcDbCircle
 10
135.988148059
 20
354.7440696641
 30
0.0
 40
1.550000000000011
100
AcDbArc
 50
0.0
 51
156.911227563
  0
ARC
  5
106
330
1F
100
AcDbEntity
  8
0
  6
Continuous
 62
     7
370
    25
100
AcDbCircle
 10
133.6424072378
 20
355.7440696641
 30
0.0
 40
1.0
100
AcDbArc
 50
270.0
 51
336.911227563
  0
LINE
  5
107
330
1F
100
AcDbEntity
  8
0
  6
Continuous
 62
     7
370
    25
100
AcDbLine
 10
130.538148059
 20
354.7440696641
 30
0.0
 11
133.6424072378
 21
354.7440696641
 31
0.0
  0
ARC
  5
108
330
1F
100
AcDbEntity
  8
0
  6
Continuous
 62
     7
370
    25
100
AcDbCircle
 10
130.538148059
 20
357.7440696641
 30
0.0
 40
3.0
100
AcDbArc
 50
180.0
 51
270.0
  0
LINE
  5
109
330
1F
100
AcDbEntity
  8
0
  6
Continuous
 62
     7
370
    25
100
AcDbLine
 10
127.538148059
 20
357.7440696641
 30
0.0
 11
127.538148059
 21
381.7440696641
 31
0.0
  0
ARC
  5
10A
330
1F
100
AcDbEntity
  8
0
  6
Continuous
 62
     7
370
    25
100
AcDbCircle
 10
130.538148059
 20
381.7440696641
 30
0.0
 40
3.0
100
AcDbArc
 50
90.0
 51
180.0
  0
LINE
  5
10B
330
1F
100
AcDbEntity
  8
0
  6
Continuous
 62
     7
370
    25
100
AcDbLine
 10
130.538148059
 20
384.7440696641
 30
0.0
 11
133.6424072378
 21
384.7440696641
 31
0.0
  0
ARC
  5
10C
330
1F
100
AcDbEntity
  8
0
  6
Continuous
 62
     7
370
    25
100
AcDbCircle
 10
133.6424072378
 20
383.7440696641
 30
0.0
 40
1.0
100
AcDbArc
 50
23.088772437
 51
90.0
  0
ARC
  5
10D
330
1F
100
AcDbEntity
  8
0
  6
Continuous
 62
     7
370
    25
100
AcDbCircle
 10
135.988148059
 20
384.7440696641
 30
0.0
 40
1.550000000000011
100
AcDbArc
 50
203.088772437
 51
0.0
  0
LINE
  5
10E
330
1F
100
AcDbEntity
  8
0
  6
Continuous
 62
     7
370
    25
100
AcDbLine
 10
137.538148059
 20
384.7440696641
 30
0.0
 11
137.538148059
 21
415.7440696641
 31
0.0
  0
ARC
  5
10F
330
1F
100
AcDbEntity
  8
0
  6
Continuous
 62
     7
370
    25
100
AcDbCircle
 10
135.988148059
 20
415.7440696641
 30
0.0
 40
1.550000000000011
100
AcDbArc
 50
0.0
 51
156.911227563
  0
ARC
  5
110
330
1F
100
AcDbEntity
  8
0
  6
Continuous
 62
     7
370
    25
100
AcDbCircle
 10
133.6424072378
 20
416.7440696641
 30
0.0
 40
1.000000000000029
100
AcDbArc
 50
270.0
 51
336.911227563
  0
LINE
  5
111
330
1F
100
AcDbEntity
  8
0
  6
Continuous
 62
     7
370
    25
100
AcDbLine
 10
130.538148059
 20
415.7440696641
 30
0.0
 11
133.6424072378
 21
415.7440696641
 31
0.0
  0
ARC
  5
112
330
1F
100
AcDbEntity
  8
0
  6
Continuous
 62
     7
370
    25
100
AcDbCircle
 10
130.538148059
 20
418.7440696641
 30
0.0
 40
3.0
100
AcDbArc
 50
180.0
 51
270.0
  0
LINE
  5
113
330
1F
100
AcDbEntity
  8
0
  6
Continuous
 62
     7
370
    25
100
AcDbLine
 10
127.538148059
 20
418.7440696641
 30
0.0
 11
127.538148059
 21
442.7440696641
 31
0.0
  0
ARC
  5
114
330
1F
100
AcDbEntity
  8
0
  6
Continuous
 62
     7
370
    25
100
AcDbCircle
 10
130.538148059
 20
442.7440696641
 30
0.0
 40
3.0
100
AcDbArc
 50
90.0
 51
180.0
  0
LINE
  5
115
330
1F
100
AcDbEntity
  8
0
  6
Continuous
 62
     7
370
    25
100
AcDbLine
 10
130.538148059
 20
445.7440696641
 30
0.0
 11
133.6424072378
 21
445.7440696641
 31
0.0
  0
LINE
  5
116
330
1F
100
AcDbEntity
  8
0
  6
Continuous
 62
     7
370
    25
100
AcDbLine
 10
165.6212408949
 20
327.7440696641
 30
0.0
 11
137.538148059
 21
327.7440696641
 31
0.0
  0
SPLINE
  5
117
330
1F
100
AcDbEntity
  8
0
  6
Continuous
 62
     7
370
    25
100
AcDbSpline
210
0.0
220
0.0
230
1.0
 70
     8
 71
     3
 72
     8
 73
     4
 74
     0
 42
0.000000001
 43
0.00000001
 40
0.0517855316395283
 40
0.0517855316395283
 40
0.0517855316395283
 40
0.0517855316395283
 40
1.0
 40
1.0
 40
1.0
 40
1.0
 10
160.5412172904121
 20
381.7587021820136
 30
0.0
 10
160.1731873333925
 20
363.5487957886665
 30
0.0
 10
161.8665285348984
 20
345.5439182826948
 30
0.0
 10
165.6212408949297
 20
327.7440696640987
 30
0.0
  0
ARC
  5
118
330
1F
100
AcDbEntity
  8
0
  6
Continuous
 62
     7
370
    25
100
AcDbCircle
 10
158.8272835891
 20
196.3988371532
 30
0.0
 40
1.000000000000018
100
AcDbArc
 50
203.088772437
 51
270.0
  0
ARC
  5
119
330
1F
100
AcDbEntity
  8
0
  6
Continuous
 62
     7
370
    25
100
AcDbCircle
 10
156.481542768
 20
195.3988371532
 30
0.0
 40
1.549999999999986
100
AcDbArc
 50
23.088772437
 51
180.0
  0
LINE
  5
11A
330
1F
100
AcDbEntity
  8
0
  6
Continuous
 62
     7
370
    25
100
AcDbLine
 10
154.931542768
 20
195.3988371532
 30
0.0
 11
154.931542768
 21
168.3988371532
 31
0.0
  0
LINE
  5
11B
330
1F
100
AcDbEntity
  8
0
  6
Continuous
 62
     7
370
    25
100
AcDbLine
 10
154.931542768
 20
168.3988371532
 30
0.0
 11
100.9560710372
 21
168.3988371532
 31
0.0
  0
LINE
  5
11C
330
1F
100
AcDbEntity
  8
0
  6
Continuous
 62
     7
370
    25
100
AcDbLine
 10
100.9560710372
 20
168.3988371532
 30
0.0
 11
100.9560710372
 21
177.3988371532
 31
0.0
  0
LINE
  5
11D
330
1F
100
AcDbEntity
  8
0
  6
Continuous
 62
     7
370
    25
100
AcDbLine
 10
100.9560710372
 20
177.3988371532
 30
0.0
 11
118.7832493817
 21
199.5045383003
 31
0.0
  0
ARC
  5
11E
330
1F
100
AcDbEntity
  8
0
  6
Continuous
 62
     7
370
    25
100
AcDbCircle
 10
87.6467278027
 20
224.6146363479
 30
0.0
 40
40.00000000000001
100
AcDbArc
 50
321.1155035663
 51
353.0
  0
LINE
  5
11F
330
1F
100
AcDbEntity
  8
0
  6
Continuous
 62
     7
370
    25
100
AcDbLine
 10
127.3485738683
 20
219.7398626117
 30
0.0
 11
131.5297411226
 21
253.7927372042
 31
0.0
  0
ARC
  5
120
330
1F
100
AcDbEntity
  8
0
  6
Continuous
 62
     7
370
    25
100
AcDbCircle
 10
76.9397027824
 20
260.4955510914
 30
0.0
 40
55.00000000000001
100
AcDbArc
 50
353.0
 51
358.8421855388
  0
LINE
  5
121
330
1F
100
AcDbEntity
  8
0
  6
Continuous
 62
     7
370
    25
100
AcDbLine
 10
154.931542768
 20
313.3988371532
 30
0.0
 11
154.931542768
 21
286.3988371532
 31
0.0
  0
ARC
  5
122
330
1F
100
AcDbEntity
  8
0
  6
Continuous
 62
     7
370
    25
100
AcDbCircle
 10
156.481542768
 20
286.3988371532
 30
0.0
 40
1.550000000000001
100
AcDbArc
 50
180.0
 51
336.911227563
  0
ARC
  5
123
330
1F
100
AcDbEntity
  8
0
  6
Continuous
 62
     7
370
    25
100
AcDbCircle
 10
158.8272835891
 20
285.3988371532
 30
0.0
 40
1.000000000000003
100
AcDbArc
 50
90.0
 51
156.911227563
  0
LINE
  5
124
330
1F
100
AcDbEntity
  8
0
  6
Continuous
 62
     7
370
    25
100
AcDbLine
 10
161.931542768
 20
286.3988371532
 30
0.0
 11
158.8272835891
 21
286.3988371532
 31
0.0
  0
ARC
  5
125
330
1F
100
AcDbEntity
  8
0
  6
Continuous
 62
     7
370
    25
100
AcDbCircle
 10
161.931542768
 20
283.3988371532
 30
0.0
 40
3.0
100
AcDbArc
 50
0.0
 51
90.0
  0
LINE
  5
126
330
1F
100
AcDbEntity
  8
0
  6
Continuous
 62
     7
370
    25
100
AcDbLine
 10
164.931542768
 20
283.3988371532
 30
0.0
 11
164.931542768
 21
259.3988371532
 31
0.0
  0
ARC
  5
127
330
1F
100
AcDbEntity
  8
0
  6
Continuous
 62
     7
370
    25
100
AcDbCircle
 10
161.931542768
 20
259.3988371532
 30
0.0
 40
3.0
100
AcDbArc
 50
270.0
 51
0.0
  0
LINE
  5
128
330
1F
100
AcDbEntity
  8
0
  6
Continuous
 62
     7
370
    25
100
AcDbLine
 10
161.931542768
 20
256.3988371532
 30
0.0
 11
158.8272835891
 21
256.3988371532
 31
0.0
  0
ARC
  5
129
330
1F
100
AcDbEntity
  8
0
  6
Continuous
 62
     7
370
    25
100
AcDbCircle
 10
158.8272835891
 20
257.3988371532
 30
0.0
 40
1.000000000000003
100
AcDbArc
 50
203.088772437
 51
270.0
  0
ARC
  5
12A
330
1F
100
AcDbEntity
  8
0
  6
Continuous
 62
     7
370
    25
100
AcDbCircle
 10
156.481542768
 20
256.3988371532
 30
0.0
 40
1.550000000000001
100
AcDbArc
 50
23.088772437
 51
180.0
  0
LINE
  5
12B
330
1F
100
AcDbEntity
  8
0
  6
Continuous
 62
     7
370
    25
100
AcDbLine
 10
154.931542768
 20
256.3988371532
 30
0.0
 11
154.931542768
 21
225.3988371532
 31
0.0
  0
ARC
  5
12C
330
1F
100
AcDbEntity
  8
0
  6
Continuous
 62
     7
370
    25
100
AcDbCircle
 10
156.481542768
 20
225.3988371532
 30
0.0
 40
1.549999999999997
100
AcDbArc
 50
180.0
 51
336.911227563
  0
ARC
  5
12D
330
1F
100
AcDbEntity
  8
0
  6
Continuous
 62
     7
370
    25
100
AcDbCircle
 10
158.8272835891
 20
224.3988371532
 30
0.0
 40
1.000000000000007
100
AcDbArc
 50
90.0
 51
156.911227563
  0
LINE
  5
12E
330
1F
100
AcDbEntity
  8
0
  6
Continuous
 62
     7
370
    25
100
AcDbLine
 10
161.931542768
 20
225.3988371532
 30
0.0
 11
158.8272835891
 21
225.3988371532
 31
0.0
  0
ARC
  5
12F
330
1F
100
AcDbEntity
  8
0
  6
Continuous
 62
     7
370
    25
100
AcDbCircle
 10
161.931542768
 20
222.3988371532
 30
0.0
 40
3.000000000000028
100
AcDbArc
 50
0.0
 51
90.0
  0
LINE
  5
130
330
1F
100
AcDbEntity
  8
0
  6
Continuous
 62
     7
370
    25
100
AcDbLine
 10
164.931542768
 20
222.3988371532
 30
0.0
 11
164.931542768
 21
198.3988371532
 31
0.0
  0
ARC
  5
131
330
1F
100
AcDbEntity
  8
0
  6
Continuous
 62
     7
370
    25
100
AcDbCircle
 10
161.931542768
 20
198.3988371532
 30
0.0
 40
3.0
100
AcDbArc
 50
270.0
 51
0.0
  0
LINE
  5
132
330
1F
100
AcDbEntity
  8
0
  6
Continuous
 62
     7
370
    25
100
AcDbLine
 10
161.931542768
 20
195.3988371532
 30
0.0
 11
158.8272835891
 21
195.3988371532
 31
0.0
  0
LINE
  5
133
330
1F
100
AcDbEntity
  8
0
  6
Continuous
 62
     7
370
    25
100
AcDbLine
 10
126.848449932
 20
313.3988371532
 30
0.0
 11
154.931542768
 21
313.3988371532
 31
0.0
  0
SPLINE
  5
134
330
1F
100
AcDbEntity
  8
0
  6
Continuous
 62
     7
370
    25
100
AcDbSpline
210
0.0
220
0.0
230
1.0
 70
     8
 71
     3
 72
     8
 73
     4
 74
     0
 42
0.000000001
 43
0.00000001
 40
0.0517855316395283
 40
0.0517855316395283
 40
0.0517855316395283
 40
0.0517855316395283
 40
1.0
 40
1.0
 40
1.0
 40
1.0
 10
131.928473536526
 20
259.3842046352824
 30
0.0
 10
132.2965034935455
 20
277.5941110286295
 30
0.0
 10
130.6031622920396
 20
295.5989885346011
 30
0.0
 10
126.8484499320083
 20
313.3988371531973
 30
0.0
  0
ENDSEC
  0
SECTION
  2
OBJECTS
  0
DICTIONARY
  5
C
330
0
100
AcDbDictionary
281
     1
  3
ACAD_GROUP
350
D
  3
ACAD_LAYOUT
350
1A
  3
ACAD_MLINESTYLE
350
17
  3
ACAD_PLOTSETTINGS
350
19
  3
ACAD_PLOTSTYLENAME
350
E
  3
ACAD_SCALELIST
350
47
  0
DICTIONARY
  5
D
102
{ACAD_REACTORS
330
C
102
}
330
C
100
AcDbDictionary
281
     1
  0
DICTIONARY
  5
1A
102
{ACAD_REACTORS
330
C
102
}
330
C
100
AcDbDictionary
281
     1
  3
Layout1
350
1E
  3
Layout2
350
26
  3
Model
350
22
  0
DICTIONARY
  5
17
102
{ACAD_REACTORS
330
C
102
}
330
C
100
AcDbDictionary
281
     1
  3
Standard
350
18
  0
DICTIONARY
  5
19
102
{ACAD_REACTORS
330
C
102
}
330
C
100
AcDbDictionary
281
     1
  0
ACDBDICTIONARYWDFLT
  5
E
102
{ACAD_REACTORS
330
C
102
}
330
C
100
AcDbDictionary
281
     1
  3
Normal
350
F
100
AcDbDictionaryWithDefault
340
F
  0
DICTIONARY
  5
47
102
{ACAD_REACTORS
330
C
102
}
330
C
100
AcDbDictionary
281
     1
  3
A0
350
48
  3
A1
350
49
  3
A2
350
4A
  3
A3
350
4B
  3
A4
350
4C
  3
A5
350
4D
  3
A6
350
4E
  3
A7
350
4F
  3
A8
350
50
  3
A9
350
51
  3
B0
350
52
  3
B1
350
53
  3
B2
350
54
  3
B3
350
55
  3
B4
350
56
  3
B5
350
57
  3
B6
350
58
  3
B7
350
59
  3
B8
350
5A
  3
B9
350
5B
  3
C0
350
5C
  3
C1
350
5D
  3
C2
350
5E
  3
C3
350
5F
  3
C4
350
60
  3
C5
350
61
  3
C6
350
62
  3
C7
350
63
  3
C8
350
64
  3
C9
350
65
  3
D0
350
66
  3
D1
350
67
  3
D2
350
68
  0
LAYOUT
  5
1E
102
{ACAD_REACTORS
330
1A
102
}
330
1A
100
AcDbPlotSettings
  1

  2
none_device
  4

  6

 40
0.0
 41
0.0
 42
0.0
 43
0.0
 44
0.0
 45
0.0
 46
0.0
 47
0.0
 48
0.0
 49
0.0
140
0.0
141
0.0
142
1.0
143
1.0
 70
   688
 72
     1
 73
     0
 74
     5
  7

 75
    16
147
1.0
148
0.0
149
0.0
100
AcDbLayout
  1
Layout1
 70
     1
 71
     1
 10
0.0
 20
0.0
 11
420.0
 21
297.0
 12
0.0
 22
0.0
 32
0.0
 14
1.0000000000E+20
 24
1.0000000000E+20
 34
1.0000000000E+20
 15
-1.0000000000E+20
 25
-1.0000000000E+20
 35
-1.0000000000E+20
146
0.0
 13
0.0
 23
0.0
 33
0.0
 16
1.0
 26
0.0
 36
0.0
 17
0.0
 27
1.0
 37
0.0
 76
     0
330
1B
  0
LAYOUT
  5
26
102
{ACAD_REACTORS
330
1A
102
}
330
1A
100
AcDbPlotSettings
  1

  2
none_device
  4

  6

 40
0.0
 41
0.0
 42
0.0
 43
0.0
 44
0.0
 45
0.0
 46
0.0
 47
0.0
 48
0.0
 49
0.0
140
0.0
141
0.0
142
1.0
143
1.0
 70
   688
 72
     1
 73
     0
 74
     5
  7

 75
    16
147
1.0
148
0.0
149
0.0
100
AcDbLayout
  1
Layout2
 70
     1
 71
     2
 10
0.0
 20
0.0
 11
0.0
 21
0.0
 12
0.0
 22
0.0
 32
0.0
 14
0.0
 24
0.0
 34
0.0
 15
0.0
 25
0.0
 35
0.0
146
0.0
 13
0.0
 23
0.0
 33
0.0
 16
1.0
 26
0.0
 36
0.0
 17
0.0
 27
1.0
 37
0.0
 76
     0
330
23
  0
LAYOUT
  5
22
102
{ACAD_REACTORS
330
1A
102
}
330
1A
100
AcDbPlotSettings
  1

  2
none_device
  4
Letter_(8.50_x_11.00_Inches)
  6

 40
6.35
 41
6.35
 42
6.35000508
 43
6.35000508
 44
215.9
 45
279.4
 46
0.0
 47
0.0
 48
0.0
 49
0.0
140
0.0
141
0.0
142
1.0
143
1.0
 70
  1712
 72
     1
 73
     0
 74
     0
  7

 75
     0
147
1.0
148
0.0
149
0.0
100
AcDbLayout
  1
Model
 70
     1
 71
     0
 10
0.0
 20
0.0
 11
297.0
 21
600.0
 12
0.0
 22
0.0
 32
0.0
 14
0.0
 24
0.0
 34
0.0
 15
297.0
 25
600.0
 35
0.0
146
0.0
 13
0.0
 23
0.0
 33
0.0
 16
1.0
 26
0.0
 36
0.0
 17
0.0
 27
1.0
 37
0.0
 76
     0
330
1F
331
29
  0
MLINESTYLE
  5
18
102
{ACAD_REACTORS
330
17
102
}
330
17
100
AcDbMlineStyle
  2
Standard
 70
     0
  3

 62
   256
 51
90.0
 52
90.0
 71
     2
 49
0.5
 62
   256
  6
BYLAYER
 49
-0.5
 62
   256
  6
BYLAYER
  0
ACDBPLACEHOLDER
  5
F
102
{ACAD_REACTORS
330
E
102
}
330
E
  0
SCALE
  5
48
102
{ACAD_REACTORS
330
47
102
}
330
47
100
AcDbScale
 70
     0
300
1:1
140
1.0
141
1.0
290
     1
  0
SCALE
  5
49
102
{ACAD_REACTORS
330
47
102
}
330
47
100
AcDbScale
 70
     0
300
1:2
140
1.0
141
2.0
290
     0
  0
SCALE
  5
4A
102
{ACAD_REACTORS
330
47
102
}
330
47
100
AcDbScale
 70
     0
300
1:4
140
1.0
141
4.0
290
     0
  0
SCALE
  5
4B
102
{ACAD_REACTORS
330
47
102
}
330
47
100
AcDbScale
 70
     0
300
1:5
140
1.0
141
5.0
290
     0
  0
SCALE
  5
4C
102
{ACAD_REACTORS
330
47
102
}
330
47
100
AcDbScale
 70
     0
300
1:8
140
1.0
141
8.0
290
     0
  0
SCALE
  5
4D
102
{ACAD_REACTORS
330
47
102
}
330
47
100
AcDbScale
 70
     0
300
1:10
140
1.0
141
10.0
290
     0
  0
SCALE
  5
4E
102
{ACAD_REACTORS
330
47
102
}
330
47
100
AcDbScale
 70
     0
300
1:16
140
1.0
141
16.0
290
     0
  0
SCALE
  5
4F
102
{ACAD_REACTORS
330
47
102
}
330
47
100
AcDbScale
 70
     0
300
1:20
140
1.0
141
20.0
290
     0
  0
SCALE
  5
50
102
{ACAD_REACTORS
330
47
102
}
330
47
100
AcDbScale
 70
     0
300
1:30
140
1.0
141
30.0
290
     0
  0
SCALE
  5
51
102
{ACAD_REACTORS
330
47
102
}
330
47
100
AcDbScale
 70
     0
300
1:40
140
1.0
141
40.0
290
     0
  0
SCALE
  5
52
102
{ACAD_REACTORS
330
47
102
}
330
47
100
AcDbScale
 70
     0
300
1:50
140
1.0
141
50.0
290
     0
  0
SCALE
  5
53
102
{ACAD_REACTORS
330
47
102
}
330
47
100
AcDbScale
 70
     0
300
1:100
140
1.0
141
100.0
290
     0
  0
SCALE
  5
54
102
{ACAD_REACTORS
330
47
102
}
330
47
100
AcDbScale
 70
     0
300
2:1
140
2.0
141
1.0
290
     0
  0
SCALE
  5
55
102
{ACAD_REACTORS
330
47
102
}
330
47
100
AcDbScale
 70
     0
300
4:1
140
4.0
141
1.0
290
     0
  0
SCALE
  5
56
102
{ACAD_REACTORS
330
47
102
}
330
47
100
AcDbScale
 70
     0
300
8:1
140
8.0
141
1.0
290
     0
  0
SCALE
  5
57
102
{ACAD_REACTORS
330
47
102
}
330
47
100
AcDbScale
 70
     0
300
10:1
140
10.0
141
1.0
290
     0
  0
SCALE
  5
58
102
{ACAD_REACTORS
330
47
102
}
330
47
100
AcDbScale
 70
     0
300
100:1
140
100.0
141
1.0
290
     0
  0
SCALE
  5
59
102
{ACAD_REACTORS
330
47
102
}
330
47
100
AcDbScale
 70
     0
300
1/128" = 1'-0"
140
0.0078125
141
12.0
290
     0
  0
SCALE
  5
5A
102
{ACAD_REACTORS
330
47
102
}
330
47
100
AcDbScale
 70
     0
300
1/64" = 1'-0"
140
0.015625
141
12.0
290
     0
  0
SCALE
  5
5B
102
{ACAD_REACTORS
330
47
102
}
330
47
100
AcDbScale
 70
     0
300
1/32" = 1'-0"
140
0.03125
141
12.0
290
     0
  0
SCALE
  5
5C
102
{ACAD_REACTORS
330
47
102
}
330
47
100
AcDbScale
 70
     0
300
1/16" = 1'-0"
140
0.0625
141
12.0
290
     0
  0
SCALE
  5
5D
102
{ACAD_REACTORS
330
47
102
}
330
47
100
AcDbScale
 70
     0
300
3/32" = 1'-0"
140
0.09375
141
12.0
290
     0
  0
SCALE
  5
5E
102
{ACAD_REACTORS
330
47
102
}
330
47
100
AcDbScale
 70
     0
300
1/8" = 1'-0"
140
0.125
141
12.0
290
     0
  0
SCALE
  5
5F
102
{ACAD_REACTORS
330
47
102
}
330
47
100
AcDbScale
 70
     0
300
3/16" = 1'-0"
140
0.1875
141
12.0
290
     0
  0
SCALE
  5
60
102
{ACAD_REACTORS
330
47
102
}
330
47
100
AcDbScale
 70
     0
300
1/4" = 1'-0"
140
0.25
141
12.0
290
     0
  0
SCALE
  5
61
102
{ACAD_REACTORS
330
47
102
}
330
47
100
AcDbScale
 70
     0
300
3/8" = 1'-0"
140
0.375
141
12.0
290
     0
  0
SCALE
  5
62
102
{ACAD_REACTORS
330
47
102
}
330
47
100
AcDbScale
 70
     0
300
1/2" = 1'-0"
140
0.5
141
12.0
290
     0
  0
SCALE
  5
63
102
{ACAD_REACTORS
330
47
102
}
330
47
100
AcDbScale
 70
     0
300
3/4" = 1'-0"
140
0.75
141
12.0
290
     0
  0
SCALE
  5
64
102
{ACAD_REACTORS
330
47
102
}
330
47
100
AcDbScale
 70
     0
300
1" = 1'-0"
140
1.0
141
12.0
290
     0
  0
SCALE
  5
65
102
{ACAD_REACTORS
330
47
102
}
330
47
100
AcDbScale
 70
     0
300
1-1/2" = 1'-0"
140
1.5
141
12.0
290
     0
  0
SCALE
  5
66
102
{ACAD_REACTORS
330
47
102
}
330
47
100
AcDbScale
 70
     0
300
3" = 1'-0"
140
3.0
141
12.0
290
     0
  0
SCALE
  5
67
102
{ACAD_REACTORS
330
47
102
}
330
47
100
AcDbScale
 70
     0
300
6" = 1'-0"
140
6.0
141
12.0
290
     0
  0
SCALE
  5
68
102
{ACAD_REACTORS
330
47
102
}
330
47
100
AcDbScale
 70
     0
300
1'-0" = 1'-0"
140
12.0
141
12.0
290
     0
  0
ENDSEC
  0
EOF
